<svg xmlns="http://www.w3.org/2000/svg" xmlns:xlink="http://www.w3.org/1999/xlink" viewBox="0 0 1366 768"><defs><filter id="h"><feGaussianBlur stdDeviation="4"/></filter><filter id="i"><feGaussianBlur stdDeviation="7"/></filter><linearGradient id="d" x1="775.197" y1="231.932" x2="1118.48" y2="231.932" gradientUnits="userSpaceOnUse"><stop offset="0" stop-color="#7e77b6"/><stop offset="1" stop-color="#b778b1"/></linearGradient><linearGradient id="a" x1="782.455" y1="229.58" x2="1111.222" y2="229.58" gradientUnits="userSpaceOnUse"><stop offset="0" stop-color="#d9e4f4"/><stop offset="1" stop-color="#edf2f8"/></linearGradient><linearGradient id="j" x1="948.216" y1="224.682" x2="1108.186" y2="224.682" gradientUnits="userSpaceOnUse"><stop offset="0" stop-color="#d9e4f4"/><stop offset=".504" stop-color="#edf2f8"/><stop offset=".996" stop-color="#f6f5f8"/></linearGradient><linearGradient id="b" x1="773.057" y1="173.834" x2="939.707" y2="173.834" gradientTransform="matrix(.992 -.059 0 1 13.908 98.773)" gradientUnits="userSpaceOnUse"><stop offset="0" stop-color="#edf2f8"/><stop offset="1" stop-color="#d9e4f4"/></linearGradient><linearGradient id="k" x1="780.399" y1="188.913" x2="947.049" y2="188.913" gradientTransform="matrix(1.001 -.037 0 1 -2.252 61.787)" xlink:href="#a"/><linearGradient id="l" x1="948.047" y1="219.472" x2="1111.574" y2="219.472" xlink:href="#b"/><linearGradient id="m" x1="698.133" y1="108.972" x2="811.045" y2="108.972" gradientTransform="matrix(.899 -.053 0 1 173.013 91.097)" xlink:href="#a"/><linearGradient id="n" x1="698.476" y1="123.184" x2="734.982" y2="123.184" gradientTransform="matrix(.899 -.053 0 1 173.013 91.097)" xlink:href="#a"/><linearGradient id="o" x1="698.133" y1="137.396" x2="783.314" y2="137.396" gradientTransform="matrix(.899 -.053 0 1 173.013 91.097)" xlink:href="#a"/><linearGradient id="p" x1="698.133" y1="151.608" x2="833.188" y2="151.608" gradientTransform="matrix(.899 -.053 0 1 173.013 91.097)" xlink:href="#a"/><linearGradient id="q" x1="698.133" y1="165.819" x2="765.661" y2="165.819" gradientTransform="matrix(.899 -.053 0 1 173.013 91.097)" xlink:href="#a"/><linearGradient id="r" x1="698.133" y1="236.878" x2="833.188" y2="236.878" gradientTransform="matrix(.899 -.053 0 1 173.013 91.097)" xlink:href="#a"/><linearGradient id="s" x1="698.133" y1="194.243" x2="740.724" y2="194.243" gradientTransform="matrix(.899 -.053 0 1 173.013 91.097)" xlink:href="#a"/><linearGradient id="t" x1="698.133" y1="208.455" x2="815.37" y2="208.455" gradientTransform="matrix(.899 -.053 0 1 173.013 91.097)" xlink:href="#a"/><linearGradient id="u" x1="858.592" y1="194.633" x2="993.646" y2="194.633" gradientTransform="matrix(.871 .044 0 1 225.173 -95.274)" xlink:href="#a"/><linearGradient id="v" x1="903.838" y1="223.057" x2="993.646" y2="223.057" gradientTransform="matrix(.871 .044 0 1 225.173 -95.274)" xlink:href="#a"/><linearGradient id="w" x1="858.935" y1="223.057" x2="895.441" y2="223.057" gradientTransform="matrix(.871 .044 0 1 225.173 -95.274)" xlink:href="#a"/><linearGradient id="x" x1="858.592" y1="237.268" x2="943.773" y2="237.268" gradientTransform="matrix(.871 .044 0 1 225.173 -95.274)" xlink:href="#a"/><linearGradient id="y" x1="858.592" y1="251.48" x2="993.646" y2="251.48" gradientTransform="matrix(.871 .044 0 1 225.173 -95.274)" xlink:href="#a"/><linearGradient id="z" x1="858.592" y1="265.692" x2="926.119" y2="265.692" gradientTransform="matrix(.871 .044 0 1 225.173 -95.274)" xlink:href="#a"/><linearGradient id="A" x1="931.382" y1="265.692" x2="980.099" y2="265.692" gradientTransform="matrix(.871 .044 0 1 225.173 -95.274)" xlink:href="#a"/><linearGradient id="B" x1="858.592" y1="336.751" x2="993.646" y2="336.751" gradientTransform="matrix(.871 .044 0 1 225.173 -95.274)" xlink:href="#a"/><linearGradient id="C" x1="858.592" y1="294.115" x2="901.182" y2="294.115" gradientTransform="matrix(.871 .044 0 1 225.173 -95.274)" xlink:href="#a"/><linearGradient id="D" x1="858.592" y1="308.327" x2="975.829" y2="308.327" gradientTransform="matrix(.871 .044 0 1 225.173 -95.274)" xlink:href="#a"/><linearGradient id="E" x1="858.592" y1="322.539" x2="923.154" y2="322.539" gradientTransform="matrix(.871 .044 0 1 225.173 -95.274)" xlink:href="#a"/><clipPath id="F"><circle cx="1018.286" cy="215.817" r="49.485" fill="#7e77b6"/></clipPath><linearGradient id="c" x1="952.947" y1="229.58" x2="1137.854" y2="229.58" gradientUnits="userSpaceOnUse"><stop offset="0" stop-color="#7e77b6"/><stop offset="1" stop-color="#77c2e1"/></linearGradient><clipPath id="G"><circle cx="1016.069" cy="211.505" r="49.485" fill="none"/></clipPath><linearGradient id="H" x1="982.947" y1="360.854" x2="1017.978" y2="325.822" xlink:href="#c"/><linearGradient id="I" x1="243.937" y1="246.101" x2="564.976" y2="246.101" xlink:href="#a"/><linearGradient id="J" x1="502.861" y1="189.692" x2="529.28" y2="189.692" xlink:href="#d"/><linearGradient id="e" x1="314.673" y1="325.057" x2="314.673" y2="72.459" gradientUnits="userSpaceOnUse"><stop offset="0" stop-color="#7e77b6"/><stop offset="1" stop-color="#76c2df"/></linearGradient><linearGradient id="K" x1="262.95" y1="252.024" x2="480.029" y2="252.024" xlink:href="#e"/><linearGradient id="L" x1="269.137" y1="278.347" x2="428.949" y2="278.347" xlink:href="#e"/><linearGradient id="M" x1="269.137" y1="291.217" x2="421.38" y2="291.217" xlink:href="#e"/><linearGradient id="N" x1="497.916" y1="334.394" x2="534.225" y2="298.085" xlink:href="#e"/><linearGradient id="O" x1="493.92" y1="275.271" x2="538.221" y2="275.271" xlink:href="#e"/><linearGradient id="P" x1="493.92" y1="283.608" x2="518.026" y2="283.608" xlink:href="#e"/><linearGradient id="g" x1="958.792" y1="691.891" x2="958.792" y2="576.446" gradientUnits="userSpaceOnUse"><stop offset="0" stop-color="#7e77b6"/><stop offset="1" stop-color="#ef6876"/></linearGradient><linearGradient id="Q" x1="958.792" y1="615.431" x2="958.792" y2="535.607" gradientUnits="userSpaceOnUse"><stop offset=".344" stop-color="#7e77b6"/><stop offset="1" stop-color="#b778b1"/></linearGradient><linearGradient id="f" x1="958.296" y1="614.068" x2="958.296" y2="573.88" gradientUnits="userSpaceOnUse"><stop offset="0" stop-color="#413d77"/><stop offset="1" stop-color="#6c689b"/></linearGradient><linearGradient id="R" x1="921.426" y1="529.64" x2="993.675" y2="529.64" xlink:href="#f"/><linearGradient id="S" x1="912.803" y1="608.198" x2="1004.782" y2="700.177" gradientUnits="userSpaceOnUse"><stop offset="0" stop-color="#6c689b"/><stop offset=".76" stop-color="#262261"/><stop offset="1" stop-color="#6c689b"/></linearGradient><linearGradient id="T" x1="30.263" y1="853.205" x2="215.171" y2="853.205" gradientTransform="rotate(18.072 1593.77744847 2425.39027351)" xlink:href="#g"/><linearGradient id="U" x1="42.546" y1="834.303" x2="145.771" y2="834.303" gradientTransform="rotate(50.991 783.39002918 1236.02921568)" xlink:href="#a"/><clipPath id="V"><circle cx="660.67" cy="447.35" r="49.485" fill="none"/></clipPath></defs><title>dns-plus-hacker-glasses</title><rect x="228.644" y="99.901" width="326.516" height="259.45" rx="7.609" ry="7.609" fill="#7e77b6" opacity=".1" filter="url(#h)"/><path d="M1119.729 120.414l-8.46-.864a2 2 0 0 1-1.271-3.282 2 2 0 0 0-1.354-3.288l-139.8-8.008a1.9 1.9 0 0 0-1.459.564l-17.333 12.549c-2.243.3-1.5.726-2.243.3l-27.123-16.125a1.888 1.888 0 0 0-1.073-.243l-132.1 9.743a1.9 1.9 0 0 0-1.032.4l-10.073 7.884a1.793 1.793 0 0 1-.862.393 3.58 3.58 0 0 0-2.963 3.66v223.029a3.531 3.531 0 0 0 3.354 3.685h136.115a3.531 3.531 0 0 1 3.354 3.685 3.531 3.531 0 0 0 3.354 3.685h58.153a3.531 3.531 0 0 0 3.354-3.685 3.531 3.531 0 0 1 3.354-3.685h136.107a3.531 3.531 0 0 0 3.354-3.685V124.1a3.531 3.531 0 0 0-3.353-3.686z" fill="#7e77b6" opacity=".16" filter="url(#i)"/><path d="M1115.194 134.17l-11.921-1.108 4.912-5.318-141.6-7.383-15.078 13.809-31.75-16.437-130.5 8.761-10.775 7.676a3.285 3.285 0 0 0-3.285 3.285v198.821a3.285 3.285 0 0 0 3.285 3.285h133.307a3.285 3.285 0 0 1 3.285 3.285 3.285 3.285 0 0 0 3.285 3.285h56.957a3.285 3.285 0 0 0 3.285-3.285 3.285 3.285 0 0 1 3.285-3.285h133.307a3.285 3.285 0 0 0 3.285-3.285V137.455a3.285 3.285 0 0 0-3.284-3.285z" fill="url(#d)"/><path d="M911.789 330.6a3.285 3.285 0 0 1 3.285 3.285 3.285 3.285 0 0 0 3.285 3.285h56.957a3.285 3.285 0 0 0 3.285-3.285 3.285 3.285 0 0 1 3.285-3.285l-35.049-5.769z" fill="#716da8"/><path d="M782.455 128.363V330.8a2.757 2.757 0 0 0 2.757 2.757h142.974a2.757 2.757 0 0 0 .922-.159l16.808-5.965a2.757 2.757 0 0 1 1.844 0l16.808 5.965a2.757 2.757 0 0 0 .922.159h142.975a2.757 2.757 0 0 0 2.757-2.757V128.363a2.757 2.757 0 0 0-2.757-2.757H785.211a2.757 2.757 0 0 0-2.756 2.757z" fill="url(#a)"/><path d="M948.669 124.09a.678.678 0 0 0-.453.654v190.185a.778.778 0 0 0 .992.756 73.767 73.767 0 0 1 33.7-3.187l124.506 16.769a.672.672 0 0 0 .767-.684v-190.3a.8.8 0 0 0-.677-.786L983.493 120.8a76.215 76.215 0 0 0-34.824 3.29z" fill="url(#j)"/><path d="M945.4 123.768a81.786 81.786 0 0 0-35.962-3.676l-128.145 15.2a.8.8 0 0 0-.7.78v190.3a.694.694 0 0 0 .791.692L910.036 311.8a79.157 79.157 0 0 1 34.806 3.558.791.791 0 0 0 1.025-.747V124.426a.688.688 0 0 0-.467-.658z" fill="url(#b)"/><path d="M945.59 122.159a83.931 83.931 0 0 0-36.31-4.47L779.9 130.061a.78.78 0 0 0-.708.764v190.3a.716.716 0 0 0 .8.709l129.9-12.421a81.233 81.233 0 0 1 35.142 4.326.78.78 0 0 0 1.034-.724V122.828a.707.707 0 0 0-.478-.669z" fill="url(#k)"/><path d="M948.509 122.849a.715.715 0 0 0-.463.673v190.186a.759.759 0 0 0 1.014.714 78.076 78.076 0 0 1 34.455-4.634l127.275 11.422a.715.715 0 0 0 .784-.717v-190.3a.764.764 0 0 0-.692-.757L984.108 118.06a80.667 80.667 0 0 0-35.599 4.789z" fill="url(#l)"/><path d="M945.376 122.035a82.287 82.287 0 0 0-35.651-5.8l-127.038 7.635a.74.74 0 0 0-.7.738v190.3a.74.74 0 0 0 .784.738l127.543-7.664a79.642 79.642 0 0 1 34.505 5.613.74.74 0 0 0 1.016-.686V122.721a.74.74 0 0 0-.459-.686zm2.924.004a.74.74 0 0 0-.464.686v190.186a.74.74 0 0 0 1.016.686 79.291 79.291 0 0 1 34.522-5.578l127.524 7.937a.74.74 0 0 0 .786-.738v-190.3a.74.74 0 0 0-.694-.738l-127.022-7.905a81.923 81.923 0 0 0-35.668 5.764z" fill="#fff"/><path fill="#7e77b6" opacity=".3" d="M989.141 333.554v35.939l14.614-9.268 14.615 9.268v-35.939h-29.229z"/><path d="M919.191 144.475l-116.156 6.894a2.586 2.586 0 0 1-2.609-2.748 2.984 2.984 0 0 1 2.609-3.058l116.156-6.894a2.586 2.586 0 0 1 2.609 2.748 2.984 2.984 0 0 1-2.609 3.058z" fill="#c2d6ed"/><path d="M899.292 159.868l-96.257 5.713a2.586 2.586 0 0 1-2.609-2.748 2.984 2.984 0 0 1 2.609-3.058l96.257-5.713a2.586 2.586 0 0 1 2.609 2.748 2.984 2.984 0 0 1-2.609 3.058z" fill="url(#m)"/><path d="M919.191 172.9l-75.493 4.48a2.586 2.586 0 0 1-2.609-2.748 2.984 2.984 0 0 1 2.609-3.058l75.493-4.48a2.586 2.586 0 0 1 2.609 2.748 2.984 2.984 0 0 1-2.609 3.058z" fill="#c2d6ed"/><path d="M830.934 178.137l-27.591 1.637a2.586 2.586 0 0 1-2.609-2.748 2.984 2.984 0 0 1 2.609-3.058l27.591-1.637a2.586 2.586 0 0 1 2.609 2.748 2.984 2.984 0 0 1-2.609 3.058z" fill="url(#n)"/><path d="M874.37 189.771L803.035 194a2.586 2.586 0 0 1-2.609-2.748 2.984 2.984 0 0 1 2.609-3.058l71.335-4.234a2.586 2.586 0 0 1 2.609 2.748 2.984 2.984 0 0 1-2.609 3.063z" fill="url(#o)"/><path d="M919.191 201.322l-116.156 6.894a2.586 2.586 0 0 1-2.609-2.748 2.984 2.984 0 0 1 2.609-3.058l116.156-6.894a2.586 2.586 0 0 1 2.609 2.748 2.984 2.984 0 0 1-2.609 3.058z" fill="url(#p)"/><path d="M858.5 219.136l-55.469 3.292a2.586 2.586 0 0 1-2.609-2.748 2.984 2.984 0 0 1 2.609-3.058l55.469-3.292a2.586 2.586 0 0 1 2.609 2.748 2.984 2.984 0 0 1-2.609 3.058z" fill="url(#q)"/><path d="M907.017 216.257l-38.565 2.289a2.586 2.586 0 0 1-2.609-2.748 2.984 2.984 0 0 1 2.609-3.058l38.565-2.289a2.586 2.586 0 0 1 2.609 2.748 2.984 2.984 0 0 1-2.609 3.058zm12.174 13.489l-116.156 6.894a2.586 2.586 0 0 1-2.609-2.748 2.984 2.984 0 0 1 2.609-3.058l116.156-6.894a2.586 2.586 0 0 1 2.609 2.748 2.984 2.984 0 0 1-2.609 3.058z" fill="#c2d6ed"/><path d="M919.191 286.593l-116.156 6.894a2.586 2.586 0 0 1-2.609-2.748 2.984 2.984 0 0 1 2.609-3.058l116.156-6.894a2.586 2.586 0 0 1 2.609 2.748 2.984 2.984 0 0 1-2.609 3.058z" fill="url(#r)"/><path d="M836.094 248.889l-33.059 1.962a2.586 2.586 0 0 1-2.609-2.748 2.984 2.984 0 0 1 2.609-3.058l33.059-1.962a2.586 2.586 0 0 1 2.609 2.748 2.984 2.984 0 0 1-2.609 3.058z" fill="url(#s)"/><path d="M903.179 259.12l-100.144 5.943a2.586 2.586 0 0 1-2.609-2.748 2.984 2.984 0 0 1 2.609-3.058l100.144-5.943a2.586 2.586 0 0 1 2.609 2.748 2.984 2.984 0 0 1-2.609 3.058z" fill="url(#t)"/><path d="M855.84 276.141l-52.8 3.134a2.586 2.586 0 0 1-2.609-2.748 2.984 2.984 0 0 1 2.609-3.058l52.8-3.134a2.586 2.586 0 0 1 2.609 2.748 2.984 2.984 0 0 1-2.609 3.058z" fill="#c2d6ed"/><path d="M1088.55 145.913l-112.633-5.694a2.917 2.917 0 0 1-2.53-3.031 2.583 2.583 0 0 1 2.53-2.775l112.633 5.694a2.917 2.917 0 0 1 2.53 3.031 2.583 2.583 0 0 1-2.53 2.775z" fill="url(#u)"/><path d="M1069.254 159.149l-93.337-4.719a2.917 2.917 0 0 1-2.53-3.031 2.583 2.583 0 0 1 2.53-2.775l93.337 4.719a2.917 2.917 0 0 1 2.53 3.031 2.583 2.583 0 0 1-2.53 2.775z" fill="#c2d6ed"/><path d="M1088.55 174.336l-73.2-3.7a2.917 2.917 0 0 1-2.53-3.031 2.583 2.583 0 0 1 2.53-2.775l73.2 3.7a2.917 2.917 0 0 1 2.53 3.031 2.583 2.583 0 0 1-2.53 2.775z" fill="url(#v)"/><path d="M1002.969 170.009l-26.754-1.353a2.917 2.917 0 0 1-2.53-3.031 2.583 2.583 0 0 1 2.53-2.775l26.754 1.353a2.917 2.917 0 0 1 2.53 3.031 2.583 2.583 0 0 1-2.53 2.775z" fill="url(#w)"/><path d="M1045.088 186.35l-69.171-3.5a2.917 2.917 0 0 1-2.53-3.031 2.583 2.583 0 0 1 2.53-2.775l69.171 3.5a2.917 2.917 0 0 1 2.53 3.031 2.583 2.583 0 0 1-2.53 2.775z" fill="url(#x)"/><path d="M1088.55 202.759l-112.633-5.694a2.917 2.917 0 0 1-2.53-3.031 2.583 2.583 0 0 1 2.53-2.775l112.633 5.694a2.917 2.917 0 0 1 2.53 3.031 2.583 2.583 0 0 1-2.53 2.775z" fill="url(#y)"/><path d="M1029.7 214l-53.787-2.719a2.917 2.917 0 0 1-2.53-3.031 2.583 2.583 0 0 1 2.53-2.775l53.787 2.719a2.917 2.917 0 0 1 2.53 3.031 2.583 2.583 0 0 1-2.53 2.775z" fill="url(#z)"/><path d="M1076.744 216.374l-37.4-1.891a2.917 2.917 0 0 1-2.53-3.031 2.583 2.583 0 0 1 2.53-2.775l37.4 1.891a2.917 2.917 0 0 1 2.53 3.031 2.583 2.583 0 0 1-2.53 2.775z" fill="url(#A)"/><path d="M1088.55 231.183l-112.633-5.694a2.917 2.917 0 0 1-2.53-3.031 2.583 2.583 0 0 1 2.53-2.775l112.633 5.694a2.917 2.917 0 0 1 2.53 3.031 2.583 2.583 0 0 1-2.53 2.775z" fill="#c2d6ed"/><path d="M1088.55 288.03l-112.633-5.694a2.917 2.917 0 0 1-2.53-3.031 2.583 2.583 0 0 1 2.53-2.775l112.633 5.694a2.917 2.917 0 0 1 2.53 3.031 2.583 2.583 0 0 1-2.53 2.775z" fill="url(#B)"/><path d="M1007.973 241.321l-32.056-1.621a2.917 2.917 0 0 1-2.53-3.031 2.583 2.583 0 0 1 2.53-2.775l32.056 1.621a2.917 2.917 0 0 1 2.53 3.031 2.583 2.583 0 0 1-2.53 2.775z" fill="url(#C)"/><path d="M1073.023 258.821l-97.106-4.909a2.917 2.917 0 0 1-2.53-3.031 2.583 2.583 0 0 1 2.53-2.775l97.106 4.909a2.917 2.917 0 0 1 2.53 3.031 2.583 2.583 0 0 1-2.53 2.775z" fill="url(#D)"/><path d="M1027.12 270.712l-51.2-2.589a2.917 2.917 0 0 1-2.53-3.031 2.583 2.583 0 0 1 2.53-2.775l51.2 2.589a2.917 2.917 0 0 1 2.53 3.031 2.583 2.583 0 0 1-2.53 2.775z" fill="url(#E)"/><g opacity=".32" fill="#7e77b6"><circle cx="1018.279" cy="215.405" r="57.269"/><path d="M1071.241 251.774c.214-.3.451-.594.66-.9.2-.289.422-.562.614-.854a63.915 63.915 0 0 0-13.238-84.687c-.021-.017-.042-.031-.063-.048a63 63 0 0 0-6.823-4.789 65.028 65.028 0 0 0-6.575-3.512c-.776-.358-1.565-.673-2.353-.992-.165-.066-.326-.14-.491-.207q-2.638-1.064-5.337-1.877-2.8-.848-5.645-1.436c-1.05-.216-2.1-.429-3.155-.591-1.923-.3-3.856-.482-5.79-.609-1.311-.086-2.624-.162-3.936-.162-.272 0-.541.041-.812.044-.375.005-.748.04-1.122.061-.634.035-1.269.065-1.9.1a64.339 64.339 0 0 0-12.475 1.985c-1.093.287-2.188.563-3.266.908-.3.1-.595.23-.9.332-1.831.619-3.628 1.336-5.4 2.129-1.185.53-2.372 1.057-3.531 1.655-.848.438-1.7.875-2.526 1.351-1.332.765-2.624 1.614-3.908 2.477a63.976 63.976 0 0 0-6.58 5.08 62.3 62.3 0 0 0-7.308 7.537 63.777 63.777 0 0 0 20.41 97.023 65.612 65.612 0 0 0 21.463 6.623 64.073 64.073 0 0 0 35.709-5.995 65.33 65.33 0 0 0 17.367-12.312c.247-.248.465-.534.708-.786s.47-.532.71-.79c1-1.078 2.022-2.139 2.963-3.3.904-1.121 1.708-2.295 2.53-3.458zm-9.688-2.344a55.01 55.01 0 0 1-8.526 8.406 54.685 54.685 0 0 1-21.2 10.3 55.542 55.542 0 0 1-6.227 1.134c-.283.034-.557.1-.84.13a55.621 55.621 0 0 1-5.809.3 56.583 56.583 0 0 1-11.914-1.362 54 54 0 0 1-11.179-3.811 54.651 54.651 0 0 1-6.064-3.362 55.389 55.389 0 0 1-5.175-3.672c-.626-.506-1.188-1.068-1.788-1.6-.162-.143-.322-.287-.482-.431a54.241 54.241 0 0 1-17.7-34.763 55.089 55.089 0 0 1 .107-12.106 55.026 55.026 0 0 1 11.792-28.039c.4-.5.853-.939 1.27-1.419a55.208 55.208 0 0 1 5.118-5.175 54.882 54.882 0 0 1 18.808-10.838 54.64 54.64 0 0 1 6.764-1.789c1.484-.289 2.984-.527 4.5-.7.113-.013.221-.04.333-.052.647-.067 1.288-.062 1.932-.107.586-.041 1.17-.064 1.755-.1.423-.024.848-.064 1.269-.07 1.593-.024 3.174.047 4.749.162a54.787 54.787 0 0 1 10.45 1.774c.273.074.538.174.809.255.851.253 1.7.51 2.539.8 1.114.384 2.2.838 3.294 1.291a54.146 54.146 0 0 1 13.064 7.685c.09.073.188.133.279.206a55.336 55.336 0 0 1 5.224 4.9 54.593 54.593 0 0 1 2.85 72.04zm25.714 15.27c.39-.481.8-.9 1.2-1.338l-12.7-10.288a5.874 5.874 0 0 0-.879-.489c-1.106 1.637-2.26 3.249-3.518 4.8-1.3 1.61-2.712 3.081-4.129 4.537a6.143 6.143 0 0 0 .757.744l12.693 10.282c.341-.487.682-.975 1.066-1.448zm11.446-3a1.342 1.342 0 0 0-.844-.236c-1.226 0-3.3.946-5.486 2.858-.209.183-.412.4-.622.6s-.394.421-.592.627c-.415.431-.831.809-1.238 1.311l-5.505 6.8c-.382.471-.733.956-1.067 1.445-.166.243-.311.486-.463.731s-.306.494-.445.742a14.531 14.531 0 0 0-1.494 3.567c-.372 1.5-.272 2.749.248 3.173l37.274 30.2s.52-12.252.52-11.519c.001 2.001-20.286-40.299-20.286-40.299z"/><circle cx="1019.059" cy="214.989" r="51.609" transform="rotate(-50.991 1019.06796368 214.9873811)"/><circle cx="1018.286" cy="215.817" r="49.485"/><g clip-path="url(#F)" font-size="12.03827" font-family="GothamBold,GothamBold"><text transform="translate(979.62 218.517)">E<tspan x="5.923" y="0" letter-spacing="-.00900449em">X</tspan><tspan x="12.688" y="0" letter-spacing="-.00397495em">A</tspan><tspan x="20.008" y="0">MPL</tspan><tspan x="41.772" y="0" letter-spacing="-.00397495em">E</tspan><tspan x="47.647" y="0">.</tspan><tspan x="50.14" y="0" letter-spacing="-.02101047em">C</tspan><tspan x="56.869" y="0">OM: </tspan><tspan x="10.228" y="14.446">12.34.56.78</tspan></text><text transform="translate(971.969 185.488)"><tspan letter-spacing=".00900449em">E</tspan><tspan x="6.031" y="0">VC</tspan><tspan x="19.731" y="0" letter-spacing="-.00900449em">X</tspan><tspan x="26.497" y="0" letter-spacing="-.00397495em">A</tspan><tspan x="33.816" y="0">MPLA.</tspan><tspan x="65.44" y="0" letter-spacing="-.02101047em">C</tspan><tspan x="72.17" y="0">OM: </tspan><tspan x="17.878" y="14.446">32.35.86.78</tspan></text><text><tspan x="989.847" y="169.106">12.34.56.78</tspan></text><text transform="translate(981.111 253.088)">E<tspan x="5.923" y="0" letter-spacing="-.00900449em">X</tspan><tspan x="12.688" y="0" letter-spacing="-.00397495em">A</tspan><tspan x="20.008" y="0">MPLI.</tspan><tspan x="47.142" y="0" letter-spacing="-.02101047em">C</tspan><tspan x="53.871" y="0">OM: </tspan><tspan x="8.729" y="14.446">12.34.46.78</tspan></text></g></g><circle cx="1016.062" cy="211.093" r="57.269" fill="#fff"/><path d="M987.565 157c.9-.508 1.8-1 2.717-1.466m-9.756 96.122l.086-.07c-.162-.143-.322-.287-.482-.431zm104.524 8.729c.39-.481.8-.9 1.2-1.338l-12.7-10.288a5.873 5.873 0 0 0-.879-.489c-1.106 1.637-2.26 3.249-3.518 4.8-1.3 1.61-2.712 3.081-4.129 4.537a6.149 6.149 0 0 0 .757.744l12.693 10.282c.341-.487.682-.975 1.066-1.448zm-18.556-9.474c-.941 1.162-1.959 2.223-2.963 3.3-.24.258-.466.537-.71.79s-.462.538-.708.786a65.333 65.333 0 0 1-17.367 12.312 63.433 63.433 0 0 1-51.107 2.085 63.642 63.642 0 0 1-17.036-9.837 64 64 0 0 1-9.438-89.9 62.3 62.3 0 0 1 7.308-7.537 63.97 63.97 0 0 1 6.58-5.08c1.284-.863 2.576-1.711 3.908-2.477.83-.477 1.677-.914 2.526-1.351 1.159-.6 2.346-1.125 3.531-1.655 1.772-.793 3.569-1.51 5.4-2.129.3-.1.593-.235.9-.332 1.078-.345 2.173-.621 3.266-.908a64.336 64.336 0 0 1 12.476-1.981c.634-.038 1.269-.068 1.9-.1.374-.021.747-.056 1.122-.061.272 0 .541-.044.812-.044 1.313 0 2.625.076 3.936.162 1.934.127 3.867.314 5.79.609 1.057.162 2.105.376 3.155.591q2.847.584 5.645 1.436 2.7.818 5.337 1.877c.165.067.326.141.491.207.788.319 1.577.634 2.353.992a65.029 65.029 0 0 1 6.575 3.512 62.982 62.982 0 0 1 6.823 4.789c.021.017.043.031.064.048a63.915 63.915 0 0 1 13.238 84.687c-.192.292-.417.565-.614.854-.209.306-.446.6-.66.9-.827 1.169-1.627 2.344-2.533 3.46zm4.741-45.938a54.254 54.254 0 0 0-14.748-31.9 55.337 55.337 0 0 0-5.224-4.9c-.091-.073-.188-.133-.279-.206a54.144 54.144 0 0 0-13.064-7.685c-1.09-.454-2.18-.907-3.294-1.291-.84-.29-1.688-.547-2.539-.8-.271-.081-.536-.181-.809-.255a54.785 54.785 0 0 0-10.45-1.774c-1.574-.115-3.155-.186-4.749-.162-.422.007-.846.046-1.269.07-.585.034-1.17.057-1.755.1-.645.045-1.286.04-1.932.107-.113.012-.221.039-.333.052-1.519.168-3.02.406-4.5.7a54.3 54.3 0 0 0-12.544 4.1 54.024 54.024 0 0 0-13.028 8.526 55.2 55.2 0 0 0-5.118 5.175c-.417.48-.867.923-1.27 1.419a55.026 55.026 0 0 0-11.792 28.039 55.088 55.088 0 0 0-.107 12.106 54.241 54.241 0 0 0 17.7 34.763l.4.5.086-.07c.6.53 1.162 1.091 1.788 1.6a55.378 55.378 0 0 0 5.175 3.672 54.645 54.645 0 0 0 6.064 3.362A55.217 55.217 0 0 0 1011 265.06a54.685 54.685 0 0 0 5.729.335 55.623 55.623 0 0 0 5.809-.3c.284-.03.558-.1.84-.13a55.528 55.528 0 0 0 6.227-1.134 54.684 54.684 0 0 0 21.2-10.3 55 55 0 0 0 8.526-8.406 54.344 54.344 0 0 0 11.904-40.147zm66.142 85.526l-40.877-33.11a1.341 1.341 0 0 0-.844-.236c-1.226 0-3.3.946-5.486 2.858-.209.183-.412.4-.622.6s-.394.421-.592.627c-.415.431-.831.809-1.238 1.311l-5.505 6.8c-.382.471-.733.956-1.067 1.445-.166.243-.311.486-.463.731s-.306.494-.445.742a14.534 14.534 0 0 0-1.494 3.567c-.372 1.5-.272 2.749.248 3.173l40.881 33.119c1.116.884 5.173-.712 8.778-5.165l5.509-6.8c3.601-4.452 4.325-8.761 3.217-9.661z" fill="url(#c)"/><circle cx="1016.842" cy="210.678" r="51.609" transform="rotate(-50.991 1016.85044926 210.67526578)" fill="#f1f1f1" opacity=".6"/><g clip-path="url(#G)"><path d="M968.6 206.02h6.345v1.649h-4.515v1.709h3.97v1.649h-3.973v1.77H975v1.649h-6.4zm10.361 4.142l-2.817-4.142h2.167l1.77 2.732 1.782-2.732h2.106l-2.816 4.117 2.937 4.31h-2.167l-1.89-2.89-1.9 2.89h-2.106zm9.401-4.203h1.709l3.612 8.487h-1.938l-.771-1.89h-3.563l-.771 1.89h-1.89zm1.95 4.96l-1.119-2.732-1.12 2.732zm4.67-4.899h2l2.215 3.563 2.215-3.563h2v8.427h-1.83v-5.5l-2.372 3.6h-.048l-2.348-3.563v5.466h-1.83zm10.45 0h3.443a4.045 4.045 0 0 1 1.354.211 2.867 2.867 0 0 1 1.011.6 2.6 2.6 0 0 1 .639.921 3.06 3.06 0 0 1 .223 1.186v.024a2.966 2.966 0 0 1-.265 1.288 2.637 2.637 0 0 1-.729.927 3.157 3.157 0 0 1-1.084.56 4.571 4.571 0 0 1-1.33.187h-1.408v2.528h-1.854zm3.323 4.249a1.506 1.506 0 0 0 1.083-.367 1.2 1.2 0 0 0 .386-.908v-.024a1.151 1.151 0 0 0-.4-.951 1.709 1.709 0 0 0-1.1-.325h-1.433v2.576zm4.719-4.249h1.854v6.754h4.2v1.673h-6.056zm7.451 0h6.345v1.649h-4.515v1.709h3.973v1.649h-3.973v1.77h4.575v1.649h-6.405zm7.801 6.501h1.938v1.926h-1.938zm7.657 2.07a4.363 4.363 0 0 1-1.722-.337 4.239 4.239 0 0 1-1.372-.921 4.188 4.188 0 0 1-.9-1.379 4.436 4.436 0 0 1-.325-1.7v-.024a4.388 4.388 0 0 1 .325-1.69 4.339 4.339 0 0 1 .9-1.385 4.194 4.194 0 0 1 1.384-.939 4.513 4.513 0 0 1 1.782-.343 5.555 5.555 0 0 1 1.077.1 4.5 4.5 0 0 1 .885.265 3.855 3.855 0 0 1 .734.409 4.941 4.941 0 0 1 .626.529l-1.18 1.36a4.481 4.481 0 0 0-1-.7 2.571 2.571 0 0 0-1.15-.252 2.33 2.33 0 0 0-1.757.77 2.643 2.643 0 0 0-.506.837 2.85 2.85 0 0 0-.181 1.018v.023a2.894 2.894 0 0 0 .181 1.023 2.664 2.664 0 0 0 .5.843 2.308 2.308 0 0 0 1.763.782 2.58 2.58 0 0 0 1.223-.265 4.725 4.725 0 0 0 .993-.722l1.18 1.191a6.1 6.1 0 0 1-.675.626 4.029 4.029 0 0 1-.764.476 3.96 3.96 0 0 1-.909.3 5.465 5.465 0 0 1-1.112.105zm9.028 0a4.6 4.6 0 0 1-1.794-.343 4.456 4.456 0 0 1-1.414-.928 4.142 4.142 0 0 1-.928-1.372 4.325 4.325 0 0 1-.331-1.691v-.024a4.238 4.238 0 0 1 .338-1.69 4.312 4.312 0 0 1 2.353-2.324 4.646 4.646 0 0 1 1.8-.343 4.6 4.6 0 0 1 1.794.343 4.471 4.471 0 0 1 1.415.928 4.154 4.154 0 0 1 .927 1.372 4.321 4.321 0 0 1 .331 1.691v.023a4.256 4.256 0 0 1-.337 1.691 4.318 4.318 0 0 1-2.354 2.324 4.646 4.646 0 0 1-1.8.343zm.023-1.71a2.527 2.527 0 0 0 1.023-.2 2.345 2.345 0 0 0 .8-.565 2.662 2.662 0 0 0 .518-.837 2.77 2.77 0 0 0 .187-1.018v-.024a2.811 2.811 0 0 0-.187-1.022 2.525 2.525 0 0 0-1.342-1.415 2.485 2.485 0 0 0-1.023-.21 2.512 2.512 0 0 0-1.029.2 2.36 2.36 0 0 0-.795.565 2.673 2.673 0 0 0-.518.837 2.77 2.77 0 0 0-.187 1.018v.023a2.812 2.812 0 0 0 .187 1.023 2.533 2.533 0 0 0 .529.843 2.575 2.575 0 0 0 .807.572 2.459 2.459 0 0 0 1.031.21zm6.116-6.861h2l2.215 3.563 2.215-3.563h2v8.427h-1.83v-5.5l-2.372 3.6h-.048l-2.348-3.563v5.466h-1.83zm10.245 1.975h1.938v1.926h-1.938zm0 4.526h1.938v1.926h-1.938zm-78.217 9.762l-1.469.361-.385-1.517 2.42-.723h1.264v8.487h-1.83zm3.527 5.143l2.8-2.3q.4-.324.675-.582a3.787 3.787 0 0 0 .451-.493 1.762 1.762 0 0 0 .253-.457 1.46 1.46 0 0 0 .078-.486 1.033 1.033 0 0 0-.313-.817 1.193 1.193 0 0 0-.818-.276 1.443 1.443 0 0 0-.873.277 4.88 4.88 0 0 0-.849.854l-1.3-1.048a7.32 7.32 0 0 1 .632-.751 3.569 3.569 0 0 1 .687-.552 2.955 2.955 0 0 1 .813-.339 4.029 4.029 0 0 1 1.011-.115 3.575 3.575 0 0 1 1.187.187 2.681 2.681 0 0 1 .914.523 2.336 2.336 0 0 1 .591.818 2.661 2.661 0 0 1 .21 1.071v.024a2.971 2.971 0 0 1-.139.945 2.8 2.8 0 0 1-.409.782 4.678 4.678 0 0 1-.691.734q-.422.368-.976.8l-1.372 1.059h3.672v1.6h-6.236zm7.657-.46h1.938v1.926h-1.938zm6.438 2.071a4.261 4.261 0 0 1-1.944-.406 4.154 4.154 0 0 1-1.343-1.061l1.276-1.218a3.351 3.351 0 0 0 .909.752 2.315 2.315 0 0 0 1.125.259 1.3 1.3 0 0 0 .861-.275.917.917 0 0 0 .331-.743v-.023a.883.883 0 0 0-.434-.791 2.264 2.264 0 0 0-1.216-.275H1000l-.289-1.175 2.011-2.014h-3.312v-1.6h5.705v1.4l-2.142 2.034a4.382 4.382 0 0 1 .839.229 2.476 2.476 0 0 1 .728.434 2.053 2.053 0 0 1 .515.692 2.37 2.37 0 0 1 .194 1v.024a2.787 2.787 0 0 1-.213 1.1 2.581 2.581 0 0 1-.605.873 2.714 2.714 0 0 1-.962.577 3.7 3.7 0 0 1-1.269.207zm8.526-1.962h-4.117l-.3-1.312 4.623-5.357h1.564v5.165h1.132v1.5h-1.128v1.817h-1.77zm0-1.5v-2.625l-2.239 2.625zm4.249 1.391h1.938v1.926h-1.938zm6.369 2.071a4.377 4.377 0 0 1-1.782-.335 4.754 4.754 0 0 1-1.372-.92l1.119-1.333a4.407 4.407 0 0 0 .964.674 2.31 2.31 0 0 0 1.047.24 1.608 1.608 0 0 0 1.029-.3 1.049 1.049 0 0 0 .379-.871v-.024a.988.988 0 0 0-.415-.848 1.787 1.787 0 0 0-1.077-.3 3.036 3.036 0 0 0-.753.09 4.26 4.26 0 0 0-.655.223l-1.072-.71.241-4.153h5.187v1.625h-3.6l-.1 1.468c.168-.04.337-.074.5-.1a3.7 3.7 0 0 1 .6-.042 4.1 4.1 0 0 1 1.151.156 2.711 2.711 0 0 1 .943.48 2.211 2.211 0 0 1 .636.835 2.938 2.938 0 0 1 .23 1.219v.024a3.01 3.01 0 0 1-.23 1.207 2.592 2.592 0 0 1-.648.913 2.874 2.874 0 0 1-1.016.583 4.069 4.069 0 0 1-1.306.199zm7.993 0a3.836 3.836 0 0 1-1.408-.229 2.972 2.972 0 0 1-1.023-.675 3.228 3.228 0 0 1-.729-1.2 5.957 5.957 0 0 1-.271-1.992v-.024a7.09 7.09 0 0 1 .223-1.817 4.208 4.208 0 0 1 .68-1.457 3.258 3.258 0 0 1 1.156-.969 3.556 3.556 0 0 1 1.637-.355 4.869 4.869 0 0 1 .795.06 3.476 3.476 0 0 1 .674.18 3.761 3.761 0 0 1 .6.293 5.709 5.709 0 0 1 .566.388l-.976 1.428c-.137-.1-.269-.2-.4-.283a2.423 2.423 0 0 0-.4-.211 2.543 2.543 0 0 0-.434-.132 2.39 2.39 0 0 0-.494-.048 1.485 1.485 0 0 0-.691.151 1.56 1.56 0 0 0-.506.411 1.959 1.959 0 0 0-.331.624 3.924 3.924 0 0 0-.169.775 4.39 4.39 0 0 1 .717-.373 2.689 2.689 0 0 1 1.029-.169 3.8 3.8 0 0 1 1.168.175 2.727 2.727 0 0 1 .938.512 2.38 2.38 0 0 1 .626.837 2.765 2.765 0 0 1 .229 1.161v.024a2.771 2.771 0 0 1-.921 2.106 3.005 3.005 0 0 1-1.017.6 3.768 3.768 0 0 1-1.268.209zm-.066-1.6a1.534 1.534 0 0 0 1.07-.347 1.147 1.147 0 0 0 .381-.887v-.024a1.113 1.113 0 0 0-.394-.88 1.594 1.594 0 0 0-1.082-.342 1.565 1.565 0 0 0-1.069.336 1.109 1.109 0 0 0-.381.874v.024a1.147 1.147 0 0 0 .393.892 1.556 1.556 0 0 0 1.082.352zm4.7-.471h1.938v1.926h-1.938zm7.476-4.9h-3.961v-1.6h6.067v1.4l-3.78 7.03h-2.095zm6.464 6.946a4.591 4.591 0 0 1-1.294-.174 3.283 3.283 0 0 1-1.029-.494 2.38 2.38 0 0 1-.681-.765 2.03 2.03 0 0 1-.246-1v-.023a2.082 2.082 0 0 1 .343-1.246 2.527 2.527 0 0 1 1.018-.789 2.493 2.493 0 0 1-.783-.729 1.95 1.95 0 0 1-.288-1.113v-.023a1.99 1.99 0 0 1 .21-.9 2.194 2.194 0 0 1 .6-.734 2.975 2.975 0 0 1 .933-.493 4.162 4.162 0 0 1 2.426 0 3.036 3.036 0 0 1 .938.487 2.112 2.112 0 0 1 .6.734 2.028 2.028 0 0 1 .211.909v.023a1.95 1.95 0 0 1-.289 1.113 2.493 2.493 0 0 1-.783.729 3.115 3.115 0 0 1 1 .789 1.863 1.863 0 0 1 .36 1.2v.024a2.172 2.172 0 0 1-.246 1.047 2.321 2.321 0 0 1-.681.776 3.172 3.172 0 0 1-1.029.488 4.741 4.741 0 0 1-1.29.164zm0-1.528a1.7 1.7 0 0 0 1.071-.3.916.916 0 0 0 .386-.747v-.023a.866.866 0 0 0-.409-.765 2.156 2.156 0 0 0-2.095 0 .865.865 0 0 0-.41.765v.023a.919.919 0 0 0 .386.74 1.675 1.675 0 0 0 1.071.307zm0-3.575a1.277 1.277 0 0 0 .879-.289.94.94 0 0 0 .325-.734v-.024a.929.929 0 0 0-.313-.687 1.235 1.235 0 0 0-.891-.3 1.25 1.25 0 0 0-.891.295.911.911 0 0 0-.313.681v.023a.959.959 0 0 0 .325.741 1.26 1.26 0 0 0 .879.294z" fill="#8077b7"/><path d="M958.917 172.991h6.345v1.649h-4.515v1.709h3.973V178h-3.973v1.77h4.575v1.649h-6.405zm7.344 0h2.046l2.2 5.935 2.2-5.935h2l-3.407 8.487h-1.638zm13.699 8.571a4.363 4.363 0 0 1-1.722-.337 4.239 4.239 0 0 1-1.372-.921 4.188 4.188 0 0 1-.9-1.379 4.436 4.436 0 0 1-.325-1.7v-.025a4.388 4.388 0 0 1 .325-1.69 4.339 4.339 0 0 1 .9-1.385 4.194 4.194 0 0 1 1.384-.939 4.513 4.513 0 0 1 1.782-.343 5.555 5.555 0 0 1 1.077.1 4.5 4.5 0 0 1 .885.265 3.855 3.855 0 0 1 .734.409 4.941 4.941 0 0 1 .626.529l-1.18 1.36a4.481 4.481 0 0 0-1-.7 2.571 2.571 0 0 0-1.15-.252 2.33 2.33 0 0 0-1.757.77 2.643 2.643 0 0 0-.506.837 2.85 2.85 0 0 0-.181 1.018v.023a2.894 2.894 0 0 0 .181 1.023 2.664 2.664 0 0 0 .5.843 2.308 2.308 0 0 0 1.763.782 2.58 2.58 0 0 0 1.223-.265 4.725 4.725 0 0 0 .993-.722l1.18 1.191a6.1 6.1 0 0 1-.675.626 4.029 4.029 0 0 1-.764.476 3.96 3.96 0 0 1-.909.3 5.465 5.465 0 0 1-1.112.106zm7.234-4.43l-2.817-4.142h2.167l1.77 2.732 1.782-2.732h2.104l-2.816 4.117 2.937 4.31h-2.167l-1.89-2.89-1.9 2.89h-2.106zm9.406-4.202h1.7l3.612 8.487h-1.938l-.771-1.89h-3.563l-.771 1.89h-1.89zm1.95 4.96l-1.119-2.732-1.12 2.732zm4.666-4.899h2l2.215 3.563 2.215-3.563h2v8.427h-1.83v-5.5l-2.372 3.6h-.048l-2.348-3.563v5.466h-1.83zm10.449 0h3.443a4.045 4.045 0 0 1 1.354.211 2.867 2.867 0 0 1 1.011.6 2.6 2.6 0 0 1 .639.921 3.06 3.06 0 0 1 .223 1.186v.024a2.966 2.966 0 0 1-.265 1.288 2.637 2.637 0 0 1-.729.927 3.157 3.157 0 0 1-1.084.56 4.571 4.571 0 0 1-1.33.187h-1.408v2.528h-1.854zm3.323 4.249a1.506 1.506 0 0 0 1.083-.367 1.2 1.2 0 0 0 .386-.908v-.024a1.151 1.151 0 0 0-.4-.951 1.709 1.709 0 0 0-1.1-.325h-1.433v2.576zm4.719-4.249h1.854v6.754h4.2v1.673h-6.056zm10.341-.061h1.709l3.612 8.487h-1.938l-.771-1.89h-3.56l-.771 1.89h-1.89zm1.95 4.96l-1.119-2.732-1.12 2.732zm4.402 1.602h1.938v1.926h-1.938zm7.661 2.07a4.363 4.363 0 0 1-1.722-.337 4.239 4.239 0 0 1-1.372-.921 4.188 4.188 0 0 1-.9-1.379 4.436 4.436 0 0 1-.325-1.7v-.025a4.388 4.388 0 0 1 .325-1.69 4.339 4.339 0 0 1 .9-1.385 4.194 4.194 0 0 1 1.384-.939 4.513 4.513 0 0 1 1.782-.343 5.555 5.555 0 0 1 1.077.1 4.5 4.5 0 0 1 .885.265 3.855 3.855 0 0 1 .734.409 4.941 4.941 0 0 1 .626.529l-1.18 1.36a4.481 4.481 0 0 0-1-.7 2.571 2.571 0 0 0-1.15-.252 2.33 2.33 0 0 0-1.757.77 2.643 2.643 0 0 0-.506.837 2.85 2.85 0 0 0-.181 1.018v.023a2.894 2.894 0 0 0 .181 1.023 2.664 2.664 0 0 0 .5.843 2.308 2.308 0 0 0 1.763.782 2.58 2.58 0 0 0 1.223-.265 4.725 4.725 0 0 0 .993-.722l1.18 1.191a6.1 6.1 0 0 1-.675.626 4.029 4.029 0 0 1-.764.476 3.96 3.96 0 0 1-.909.3 5.465 5.465 0 0 1-1.112.106zm9.028 0a4.6 4.6 0 0 1-1.794-.343 4.456 4.456 0 0 1-1.414-.928 4.142 4.142 0 0 1-.928-1.372 4.325 4.325 0 0 1-.331-1.691v-.028a4.238 4.238 0 0 1 .338-1.69 4.312 4.312 0 0 1 2.353-2.324 4.646 4.646 0 0 1 1.8-.343 4.6 4.6 0 0 1 1.794.343 4.471 4.471 0 0 1 1.415.928 4.154 4.154 0 0 1 .927 1.372 4.321 4.321 0 0 1 .331 1.691v.023a4.256 4.256 0 0 1-.337 1.691 4.318 4.318 0 0 1-2.354 2.324 4.646 4.646 0 0 1-1.8.347zm.023-1.71a2.527 2.527 0 0 0 1.023-.2 2.345 2.345 0 0 0 .8-.565 2.662 2.662 0 0 0 .518-.837 2.77 2.77 0 0 0 .187-1.018v-.032a2.811 2.811 0 0 0-.187-1.022 2.525 2.525 0 0 0-1.342-1.415 2.485 2.485 0 0 0-1.023-.21 2.512 2.512 0 0 0-1.029.2 2.36 2.36 0 0 0-.795.565 2.673 2.673 0 0 0-.518.837 2.77 2.77 0 0 0-.187 1.018v.023a2.812 2.812 0 0 0 .187 1.023 2.533 2.533 0 0 0 .529.843 2.575 2.575 0 0 0 .807.572 2.459 2.459 0 0 0 1.03.218zm6.116-6.861h2l2.215 3.563 2.215-3.563h2v8.427h-1.83v-5.5l-2.372 3.6h-.048l-2.348-3.563v5.466h-1.83zm10.245 1.974h1.938v1.926h-1.938zm0 4.526h1.938v1.926h-1.938zm-87.136 16.516a4.261 4.261 0 0 1-1.944-.406 4.154 4.154 0 0 1-1.343-1.061l1.276-1.218a3.351 3.351 0 0 0 .909.752 2.315 2.315 0 0 0 1.125.259 1.3 1.3 0 0 0 .861-.275.917.917 0 0 0 .331-.743v-.023a.883.883 0 0 0-.434-.791 2.264 2.264 0 0 0-1.216-.275h-.771l-.289-1.175 2.011-2.014h-3.311v-1.6h5.705v1.4l-2.142 2.034a4.382 4.382 0 0 1 .839.229 2.476 2.476 0 0 1 .728.434 2.053 2.053 0 0 1 .515.692 2.37 2.37 0 0 1 .194 1v.024a2.787 2.787 0 0 1-.213 1.1 2.581 2.581 0 0 1-.605.873 2.714 2.714 0 0 1-.962.577 3.7 3.7 0 0 1-1.264.207zm4.321-1.607l2.8-2.3q.4-.324.675-.582a3.787 3.787 0 0 0 .451-.493 1.762 1.762 0 0 0 .253-.457 1.46 1.46 0 0 0 .078-.486 1.033 1.033 0 0 0-.313-.817 1.193 1.193 0 0 0-.818-.276 1.443 1.443 0 0 0-.873.277 4.88 4.88 0 0 0-.849.854l-1.3-1.048a7.32 7.32 0 0 1 .632-.751 3.569 3.569 0 0 1 .687-.552 2.955 2.955 0 0 1 .813-.339 4.029 4.029 0 0 1 1.011-.115 3.575 3.575 0 0 1 1.187.187 2.681 2.681 0 0 1 .914.523 2.336 2.336 0 0 1 .591.818 2.661 2.661 0 0 1 .21 1.071v.024a2.971 2.971 0 0 1-.139.945 2.8 2.8 0 0 1-.409.782 4.678 4.678 0 0 1-.691.734q-.422.368-.976.8l-1.372 1.059h3.672v1.6h-6.236zm7.656-.463h1.938v1.926h-1.938zm6.442 2.07a4.261 4.261 0 0 1-1.944-.406 4.154 4.154 0 0 1-1.343-1.061l1.276-1.218a3.351 3.351 0 0 0 .909.752 2.315 2.315 0 0 0 1.125.259 1.3 1.3 0 0 0 .861-.275.917.917 0 0 0 .331-.743v-.023a.883.883 0 0 0-.434-.791 2.264 2.264 0 0 0-1.216-.275h-.771l-.289-1.175 2.011-2.014h-3.311v-1.6h5.705v1.4l-2.142 2.034a4.382 4.382 0 0 1 .839.229 2.476 2.476 0 0 1 .728.434 2.053 2.053 0 0 1 .515.692 2.37 2.37 0 0 1 .194 1v.024a2.787 2.787 0 0 1-.213 1.1 2.581 2.581 0 0 1-.605.873 2.714 2.714 0 0 1-.962.577 3.7 3.7 0 0 1-1.264.207zm7.403 0a4.377 4.377 0 0 1-1.782-.335 4.754 4.754 0 0 1-1.372-.92l1.119-1.333a4.407 4.407 0 0 0 .964.674 2.31 2.31 0 0 0 1.047.24 1.608 1.608 0 0 0 1.029-.3 1.049 1.049 0 0 0 .379-.871v-.024a.988.988 0 0 0-.415-.848 1.787 1.787 0 0 0-1.077-.3 3.036 3.036 0 0 0-.753.09 4.26 4.26 0 0 0-.655.223l-1.072-.71.241-4.153H1013v1.625h-3.6l-.1 1.468c.168-.04.337-.074.5-.1a3.7 3.7 0 0 1 .6-.042 4.1 4.1 0 0 1 1.151.156 2.711 2.711 0 0 1 .943.48 2.211 2.211 0 0 1 .636.835 2.938 2.938 0 0 1 .23 1.219v.024a3.01 3.01 0 0 1-.23 1.207 2.592 2.592 0 0 1-.648.913 2.874 2.874 0 0 1-1.016.583 4.069 4.069 0 0 1-1.307.199zm4.658-2.07h1.938v1.926h-1.938zm6.49 2.046a4.591 4.591 0 0 1-1.294-.174 3.283 3.283 0 0 1-1.029-.494 2.38 2.38 0 0 1-.681-.765 2.03 2.03 0 0 1-.246-1v-.023a2.082 2.082 0 0 1 .343-1.246 2.527 2.527 0 0 1 1.018-.789 2.493 2.493 0 0 1-.783-.729 1.95 1.95 0 0 1-.288-1.113v-.023a1.99 1.99 0 0 1 .21-.9 2.194 2.194 0 0 1 .6-.734 2.975 2.975 0 0 1 .933-.493 4.162 4.162 0 0 1 2.426 0 3.036 3.036 0 0 1 .938.487 2.112 2.112 0 0 1 .6.734 2.028 2.028 0 0 1 .211.909v.023a1.95 1.95 0 0 1-.289 1.113 2.493 2.493 0 0 1-.783.729 3.115 3.115 0 0 1 1 .789 1.863 1.863 0 0 1 .36 1.2v.024a2.172 2.172 0 0 1-.246 1.047 2.321 2.321 0 0 1-.681.776 3.172 3.172 0 0 1-1.029.488 4.741 4.741 0 0 1-1.29.164zm0-1.528a1.7 1.7 0 0 0 1.071-.3.916.916 0 0 0 .386-.747v-.023a.866.866 0 0 0-.409-.765 2.156 2.156 0 0 0-2.095 0 .865.865 0 0 0-.41.765v.023a.919.919 0 0 0 .386.74 1.675 1.675 0 0 0 1.071.307zm0-3.575a1.277 1.277 0 0 0 .879-.289.94.94 0 0 0 .325-.734v-.024a.929.929 0 0 0-.313-.687 1.235 1.235 0 0 0-.891-.3 1.25 1.25 0 0 0-.891.295.911.911 0 0 0-.313.681v.023a.959.959 0 0 0 .325.741 1.26 1.26 0 0 0 .879.293zm7.873 5.127a3.836 3.836 0 0 1-1.408-.229 2.972 2.972 0 0 1-1.023-.675 3.228 3.228 0 0 1-.729-1.2 5.957 5.957 0 0 1-.271-1.992v-.024a7.09 7.09 0 0 1 .223-1.817 4.208 4.208 0 0 1 .68-1.457 3.258 3.258 0 0 1 1.156-.969 3.556 3.556 0 0 1 1.637-.355 4.869 4.869 0 0 1 .795.06 3.476 3.476 0 0 1 .674.18 3.761 3.761 0 0 1 .6.293 5.709 5.709 0 0 1 .566.388l-.976 1.428c-.137-.1-.269-.2-.4-.283a2.423 2.423 0 0 0-.4-.211 2.543 2.543 0 0 0-.434-.132 2.39 2.39 0 0 0-.494-.048 1.485 1.485 0 0 0-.691.151 1.56 1.56 0 0 0-.506.411 1.959 1.959 0 0 0-.331.624 3.924 3.924 0 0 0-.169.775 4.39 4.39 0 0 1 .717-.373 2.689 2.689 0 0 1 1.029-.169 3.8 3.8 0 0 1 1.168.175 2.727 2.727 0 0 1 .938.512 2.38 2.38 0 0 1 .626.837 2.765 2.765 0 0 1 .229 1.161v.024a2.771 2.771 0 0 1-.921 2.106 3.005 3.005 0 0 1-1.017.6 3.768 3.768 0 0 1-1.268.209zm-.066-1.6a1.534 1.534 0 0 0 1.07-.347 1.147 1.147 0 0 0 .381-.887v-.024a1.113 1.113 0 0 0-.394-.88 1.594 1.594 0 0 0-1.082-.342 1.565 1.565 0 0 0-1.069.336 1.109 1.109 0 0 0-.381.874v.024a1.147 1.147 0 0 0 .393.892 1.556 1.556 0 0 0 1.081.353zm4.699-.47h1.938v1.926h-1.938zm7.477-4.9h-3.961v-1.6h6.067v1.4l-3.78 7.03h-2.095zm6.464 6.946a4.591 4.591 0 0 1-1.294-.174 3.283 3.283 0 0 1-1.029-.494 2.38 2.38 0 0 1-.681-.765 2.03 2.03 0 0 1-.246-1v-.023a2.082 2.082 0 0 1 .343-1.246 2.527 2.527 0 0 1 1.018-.789 2.493 2.493 0 0 1-.783-.729 1.95 1.95 0 0 1-.288-1.113v-.023a1.99 1.99 0 0 1 .21-.9 2.194 2.194 0 0 1 .6-.734 2.975 2.975 0 0 1 .933-.493 4.162 4.162 0 0 1 2.426 0 3.036 3.036 0 0 1 .938.487 2.112 2.112 0 0 1 .6.734 2.028 2.028 0 0 1 .211.909v.023a1.95 1.95 0 0 1-.289 1.113 2.493 2.493 0 0 1-.783.729 3.115 3.115 0 0 1 1 .789 1.863 1.863 0 0 1 .36 1.2v.024a2.172 2.172 0 0 1-.246 1.047 2.321 2.321 0 0 1-.681.776 3.172 3.172 0 0 1-1.029.488 4.741 4.741 0 0 1-1.29.164zm0-1.528a1.7 1.7 0 0 0 1.071-.3.916.916 0 0 0 .386-.747v-.023a.866.866 0 0 0-.409-.765 2.156 2.156 0 0 0-2.095 0 .865.865 0 0 0-.41.765v.023a.919.919 0 0 0 .386.74 1.675 1.675 0 0 0 1.071.307zm0-3.575a1.277 1.277 0 0 0 .879-.289.94.94 0 0 0 .325-.734v-.024a.929.929 0 0 0-.313-.687 1.235 1.235 0 0 0-.891-.3 1.25 1.25 0 0 0-.891.295.911.911 0 0 0-.313.681v.023a.959.959 0 0 0 .325.741 1.26 1.26 0 0 0 .879.293zm-64.176-32.455l-1.469.361-.385-1.517 2.42-.723h1.264v8.487h-1.83zm3.527 5.144l2.8-2.3q.4-.324.675-.582a3.787 3.787 0 0 0 .451-.493 1.762 1.762 0 0 0 .253-.457 1.46 1.46 0 0 0 .078-.486 1.033 1.033 0 0 0-.313-.817 1.193 1.193 0 0 0-.818-.276 1.443 1.443 0 0 0-.873.277 4.88 4.88 0 0 0-.849.854l-1.3-1.048a7.32 7.32 0 0 1 .632-.751 3.569 3.569 0 0 1 .687-.552 2.955 2.955 0 0 1 .813-.339 4.029 4.029 0 0 1 1.011-.115 3.575 3.575 0 0 1 1.187.187 2.681 2.681 0 0 1 .914.523 2.336 2.336 0 0 1 .591.818 2.661 2.661 0 0 1 .21 1.071v.024a2.971 2.971 0 0 1-.139.945 2.8 2.8 0 0 1-.409.782 4.678 4.678 0 0 1-.691.734q-.422.368-.976.8l-1.372 1.059h3.672v1.6h-6.236zm7.657-.46h1.938v1.926h-1.938zm6.438 2.07a4.261 4.261 0 0 1-1.944-.406 4.154 4.154 0 0 1-1.343-1.061l1.276-1.218a3.351 3.351 0 0 0 .909.752 2.315 2.315 0 0 0 1.125.259 1.3 1.3 0 0 0 .861-.275.917.917 0 0 0 .331-.743v-.023a.883.883 0 0 0-.434-.791 2.264 2.264 0 0 0-1.216-.275H1000l-.289-1.175 2.011-2.014h-3.312v-1.6h5.705V158l-2.142 2.034a4.382 4.382 0 0 1 .839.229 2.476 2.476 0 0 1 .728.434 2.053 2.053 0 0 1 .515.692 2.37 2.37 0 0 1 .194 1v.024a2.787 2.787 0 0 1-.213 1.1 2.581 2.581 0 0 1-.605.873 2.714 2.714 0 0 1-.962.577 3.7 3.7 0 0 1-1.269.216zm8.526-1.962h-4.117l-.3-1.312 4.623-5.357h1.564v5.165h1.132v1.5h-1.128v1.817h-1.77zm0-1.5v-2.625l-2.239 2.625zm4.249 1.392h1.938v1.926h-1.938zm6.369 2.07a4.377 4.377 0 0 1-1.782-.335 4.754 4.754 0 0 1-1.372-.92l1.119-1.333a4.407 4.407 0 0 0 .964.674 2.31 2.31 0 0 0 1.047.24 1.608 1.608 0 0 0 1.029-.3 1.049 1.049 0 0 0 .379-.871v-.024a.988.988 0 0 0-.415-.848 1.787 1.787 0 0 0-1.077-.3 3.036 3.036 0 0 0-.753.09 4.26 4.26 0 0 0-.655.223l-1.072-.71.241-4.153h5.187v1.625h-3.6l-.1 1.468c.168-.04.337-.074.5-.1a3.7 3.7 0 0 1 .6-.042 4.1 4.1 0 0 1 1.151.156 2.711 2.711 0 0 1 .943.48 2.211 2.211 0 0 1 .636.835 2.938 2.938 0 0 1 .23 1.219v.024a3.01 3.01 0 0 1-.23 1.207 2.592 2.592 0 0 1-.648.913 2.874 2.874 0 0 1-1.016.583 4.069 4.069 0 0 1-1.306.199zm7.993 0a3.836 3.836 0 0 1-1.408-.229 2.972 2.972 0 0 1-1.023-.675 3.228 3.228 0 0 1-.729-1.2 5.957 5.957 0 0 1-.271-1.992v-.024a7.09 7.09 0 0 1 .223-1.817 4.208 4.208 0 0 1 .68-1.457 3.258 3.258 0 0 1 1.156-.969 3.556 3.556 0 0 1 1.637-.355 4.869 4.869 0 0 1 .795.06 3.476 3.476 0 0 1 .674.18 3.761 3.761 0 0 1 .6.293 5.709 5.709 0 0 1 .566.388l-.976 1.428c-.137-.1-.269-.2-.4-.283a2.423 2.423 0 0 0-.4-.211 2.543 2.543 0 0 0-.434-.132 2.39 2.39 0 0 0-.494-.048 1.485 1.485 0 0 0-.691.151 1.56 1.56 0 0 0-.506.411 1.959 1.959 0 0 0-.331.624 3.924 3.924 0 0 0-.169.775 4.39 4.39 0 0 1 .717-.373 2.689 2.689 0 0 1 1.029-.169 3.8 3.8 0 0 1 1.168.175 2.727 2.727 0 0 1 .938.512 2.38 2.38 0 0 1 .626.837 2.765 2.765 0 0 1 .229 1.161v.024a2.771 2.771 0 0 1-.921 2.106 3.005 3.005 0 0 1-1.017.6 3.768 3.768 0 0 1-1.268.209zm-.066-1.6a1.534 1.534 0 0 0 1.07-.347 1.147 1.147 0 0 0 .381-.887v-.024a1.113 1.113 0 0 0-.394-.88 1.594 1.594 0 0 0-1.082-.342 1.565 1.565 0 0 0-1.069.336 1.109 1.109 0 0 0-.381.874v.024a1.147 1.147 0 0 0 .393.892 1.556 1.556 0 0 0 1.082.353zm4.7-.47h1.938v1.926h-1.938zm7.476-4.901h-3.961v-1.6h6.067V158l-3.78 7.03h-2.095zm6.464 6.947a4.591 4.591 0 0 1-1.294-.174 3.283 3.283 0 0 1-1.029-.494 2.38 2.38 0 0 1-.681-.765 2.03 2.03 0 0 1-.246-1v-.022a2.082 2.082 0 0 1 .343-1.246 2.527 2.527 0 0 1 1.018-.789 2.493 2.493 0 0 1-.783-.729 1.95 1.95 0 0 1-.288-1.113v-.023a1.99 1.99 0 0 1 .21-.9 2.194 2.194 0 0 1 .6-.734 2.975 2.975 0 0 1 .933-.493 4.162 4.162 0 0 1 2.426 0 3.036 3.036 0 0 1 .938.487 2.112 2.112 0 0 1 .6.734 2.028 2.028 0 0 1 .211.909v.023a1.95 1.95 0 0 1-.289 1.113 2.493 2.493 0 0 1-.783.729 3.115 3.115 0 0 1 1 .789 1.863 1.863 0 0 1 .36 1.2v.024a2.172 2.172 0 0 1-.246 1.047 2.321 2.321 0 0 1-.681.776 3.172 3.172 0 0 1-1.029.488 4.741 4.741 0 0 1-1.29.163zm0-1.528a1.7 1.7 0 0 0 1.071-.3.916.916 0 0 0 .386-.747v-.023a.866.866 0 0 0-.409-.765 2.156 2.156 0 0 0-2.095 0 .865.865 0 0 0-.41.765v.023a.919.919 0 0 0 .386.74 1.675 1.675 0 0 0 1.071.306zm0-3.575a1.277 1.277 0 0 0 .879-.289.94.94 0 0 0 .325-.734V159a.929.929 0 0 0-.313-.687 1.235 1.235 0 0 0-.891-.3 1.25 1.25 0 0 0-.891.295.911.911 0 0 0-.313.681v.023a.959.959 0 0 0 .325.741 1.26 1.26 0 0 0 .879.298zM970.6 240.59h6.345v1.649h-4.515v1.709h3.97v1.652h-3.973v1.77H977v1.649h-6.4zm10.364 4.142l-2.817-4.142h2.167l1.77 2.732 1.782-2.732h2.106l-2.816 4.117 2.937 4.31h-2.167l-1.89-2.89-1.9 2.89h-2.106zm9.401-4.202h1.709l3.612 8.487h-1.938l-.771-1.89h-3.563l-.771 1.89h-1.89zm1.95 4.96l-1.119-2.732-1.12 2.732zm4.67-4.9h2l2.215 3.563 2.215-3.563h2v8.427h-1.83v-5.5l-2.372 3.6h-.048l-2.348-3.563v5.466h-1.83zm10.45 0h3.443a4.045 4.045 0 0 1 1.354.211 2.867 2.867 0 0 1 1.011.6 2.6 2.6 0 0 1 .639.921 3.06 3.06 0 0 1 .223 1.186v.024a2.966 2.966 0 0 1-.265 1.288 2.637 2.637 0 0 1-.729.927 3.157 3.157 0 0 1-1.084.56 4.571 4.571 0 0 1-1.33.187h-1.408v2.528h-1.854zm3.323 4.249a1.506 1.506 0 0 0 1.083-.367 1.2 1.2 0 0 0 .386-.908v-.024a1.151 1.151 0 0 0-.4-.951 1.709 1.709 0 0 0-1.1-.325h-1.433v2.576zm4.719-4.249h1.854v6.754h4.2v1.673h-6.056zm7.536 0h1.854v8.427h-1.854zm3.695 6.501h1.938v1.926h-1.938zm7.657 2.071a4.363 4.363 0 0 1-1.722-.337 4.239 4.239 0 0 1-1.372-.921 4.188 4.188 0 0 1-.9-1.379 4.436 4.436 0 0 1-.325-1.7v-.025a4.388 4.388 0 0 1 .325-1.69 4.339 4.339 0 0 1 .9-1.385 4.194 4.194 0 0 1 1.384-.939 4.513 4.513 0 0 1 1.782-.343 5.555 5.555 0 0 1 1.077.1 4.5 4.5 0 0 1 .885.265 3.855 3.855 0 0 1 .734.409 4.941 4.941 0 0 1 .626.529l-1.18 1.36a4.481 4.481 0 0 0-1-.7 2.571 2.571 0 0 0-1.15-.252 2.33 2.33 0 0 0-1.757.77 2.643 2.643 0 0 0-.506.837 2.85 2.85 0 0 0-.181 1.018v.023a2.894 2.894 0 0 0 .181 1.023 2.664 2.664 0 0 0 .5.843 2.308 2.308 0 0 0 1.763.782 2.58 2.58 0 0 0 1.223-.265 4.725 4.725 0 0 0 .993-.722l1.18 1.191a6.1 6.1 0 0 1-.675.626 4.029 4.029 0 0 1-.764.476 3.96 3.96 0 0 1-.909.3 5.465 5.465 0 0 1-1.112.106zm9.029 0a4.6 4.6 0 0 1-1.794-.343 4.456 4.456 0 0 1-1.414-.928 4.142 4.142 0 0 1-.928-1.372 4.325 4.325 0 0 1-.331-1.691v-.028a4.238 4.238 0 0 1 .338-1.69 4.312 4.312 0 0 1 2.353-2.324 4.646 4.646 0 0 1 1.8-.343 4.6 4.6 0 0 1 1.794.343 4.471 4.471 0 0 1 1.415.928 4.154 4.154 0 0 1 .927 1.372 4.321 4.321 0 0 1 .331 1.691v.023a4.256 4.256 0 0 1-.337 1.691 4.318 4.318 0 0 1-2.354 2.324 4.646 4.646 0 0 1-1.8.347zm.023-1.71a2.527 2.527 0 0 0 1.023-.2 2.345 2.345 0 0 0 .8-.565 2.662 2.662 0 0 0 .518-.837 2.77 2.77 0 0 0 .187-1.018v-.032a2.811 2.811 0 0 0-.187-1.022 2.525 2.525 0 0 0-1.342-1.415 2.485 2.485 0 0 0-1.023-.21 2.512 2.512 0 0 0-1.029.2 2.36 2.36 0 0 0-.795.565 2.673 2.673 0 0 0-.518.837 2.77 2.77 0 0 0-.187 1.018v.023a2.812 2.812 0 0 0 .187 1.023 2.533 2.533 0 0 0 .529.843 2.575 2.575 0 0 0 .807.572 2.459 2.459 0 0 0 1.03.218zm6.115-6.862h2l2.215 3.563 2.215-3.563h2v8.427h-1.83v-5.5l-2.372 3.6h-.048l-2.348-3.563v5.466h-1.83zm10.245 1.975h1.938v1.926h-1.938zm0 4.526h1.938v1.926h-1.938zm-76.562 9.762l-1.469.361-.385-1.517 2.42-.723h1.264v8.487h-1.83zm3.527 5.147l2.8-2.3q.4-.324.675-.582a3.787 3.787 0 0 0 .451-.493 1.762 1.762 0 0 0 .253-.457 1.46 1.46 0 0 0 .078-.486 1.033 1.033 0 0 0-.313-.817 1.193 1.193 0 0 0-.818-.276 1.443 1.443 0 0 0-.873.277 4.88 4.88 0 0 0-.849.854l-1.3-1.048a7.32 7.32 0 0 1 .632-.751 3.569 3.569 0 0 1 .687-.552 2.955 2.955 0 0 1 .813-.339 4.029 4.029 0 0 1 1.011-.115 3.575 3.575 0 0 1 1.187.187 2.681 2.681 0 0 1 .914.523 2.336 2.336 0 0 1 .591.818 2.661 2.661 0 0 1 .21 1.071v.024a2.971 2.971 0 0 1-.139.945 2.8 2.8 0 0 1-.409.782 4.678 4.678 0 0 1-.691.734q-.422.368-.976.8l-1.372 1.059h3.672v1.6h-6.236zm7.658-.463h1.938v1.926H994.4zm6.44 2.07a4.261 4.261 0 0 1-1.944-.406 4.154 4.154 0 0 1-1.343-1.061l1.276-1.218a3.351 3.351 0 0 0 .909.752 2.315 2.315 0 0 0 1.125.259 1.3 1.3 0 0 0 .861-.275.917.917 0 0 0 .331-.743v-.023a.883.883 0 0 0-.434-.791 2.264 2.264 0 0 0-1.216-.275h-.771l-.289-1.175 2.011-2.014h-3.311v-1.6h5.705v1.4l-2.142 2.034a4.382 4.382 0 0 1 .839.229 2.476 2.476 0 0 1 .728.434 2.053 2.053 0 0 1 .515.692 2.37 2.37 0 0 1 .194 1v.024a2.787 2.787 0 0 1-.213 1.1 2.581 2.581 0 0 1-.605.873 2.714 2.714 0 0 1-.962.577 3.7 3.7 0 0 1-1.264.207zm8.522-1.962h-4.117l-.3-1.312 4.623-5.357h1.564v5.165h1.132v1.5h-1.132v1.817h-1.77zm0-1.5v-2.625l-2.239 2.625zm4.249 1.392h1.938v1.926h-1.938zm7.489.108h-4.117l-.3-1.312 4.623-5.357h1.564v5.165h1.13v1.5h-1.132v1.817h-1.77zm0-1.5v-2.625l-2.239 2.625zm7.584 3.462a3.836 3.836 0 0 1-1.408-.229 2.972 2.972 0 0 1-1.023-.675 3.228 3.228 0 0 1-.729-1.2 5.957 5.957 0 0 1-.271-1.992v-.024a7.09 7.09 0 0 1 .223-1.817 4.208 4.208 0 0 1 .68-1.457 3.258 3.258 0 0 1 1.156-.969 3.556 3.556 0 0 1 1.637-.355 4.869 4.869 0 0 1 .795.06 3.476 3.476 0 0 1 .674.18 3.761 3.761 0 0 1 .6.293 5.709 5.709 0 0 1 .566.388l-.976 1.428c-.137-.1-.269-.2-.4-.283a2.423 2.423 0 0 0-.4-.211 2.543 2.543 0 0 0-.434-.132 2.39 2.39 0 0 0-.494-.048 1.485 1.485 0 0 0-.691.151 1.56 1.56 0 0 0-.506.411 1.959 1.959 0 0 0-.331.624 3.924 3.924 0 0 0-.169.775 4.39 4.39 0 0 1 .717-.373 2.689 2.689 0 0 1 1.029-.169 3.8 3.8 0 0 1 1.168.175 2.727 2.727 0 0 1 .938.512 2.38 2.38 0 0 1 .626.837 2.765 2.765 0 0 1 .229 1.161v.024a2.771 2.771 0 0 1-.921 2.106 3.005 3.005 0 0 1-1.017.6 3.768 3.768 0 0 1-1.268.209zm-.066-1.6a1.534 1.534 0 0 0 1.07-.347 1.147 1.147 0 0 0 .381-.887v-.024a1.113 1.113 0 0 0-.394-.88 1.594 1.594 0 0 0-1.082-.342 1.565 1.565 0 0 0-1.069.336 1.109 1.109 0 0 0-.381.874v.024a1.147 1.147 0 0 0 .393.892 1.556 1.556 0 0 0 1.081.352zm4.699-.47h1.938v1.926h-1.938zm7.477-4.901h-3.961v-1.6h6.067v1.4l-3.78 7.03h-2.095zm6.464 6.947a4.591 4.591 0 0 1-1.294-.174 3.283 3.283 0 0 1-1.029-.494 2.38 2.38 0 0 1-.681-.765 2.03 2.03 0 0 1-.246-1v-.023a2.082 2.082 0 0 1 .343-1.246 2.527 2.527 0 0 1 1.018-.789 2.493 2.493 0 0 1-.783-.729 1.95 1.95 0 0 1-.288-1.113v-.023a1.99 1.99 0 0 1 .21-.9 2.194 2.194 0 0 1 .6-.734 2.975 2.975 0 0 1 .933-.493 4.162 4.162 0 0 1 2.426 0 3.036 3.036 0 0 1 .938.487 2.112 2.112 0 0 1 .6.734 2.028 2.028 0 0 1 .211.909v.023a1.95 1.95 0 0 1-.289 1.113 2.493 2.493 0 0 1-.783.729 3.115 3.115 0 0 1 1 .789 1.863 1.863 0 0 1 .36 1.2v.024a2.172 2.172 0 0 1-.246 1.047 2.321 2.321 0 0 1-.681.776 3.172 3.172 0 0 1-1.029.488 4.741 4.741 0 0 1-1.29.164zm0-1.528a1.7 1.7 0 0 0 1.071-.3.916.916 0 0 0 .386-.747v-.023a.866.866 0 0 0-.409-.765 2.156 2.156 0 0 0-2.095 0 .865.865 0 0 0-.41.765v.023a.919.919 0 0 0 .386.74 1.675 1.675 0 0 0 1.071.306zm0-3.575a1.277 1.277 0 0 0 .879-.289.94.94 0 0 0 .325-.734v-.024a.929.929 0 0 0-.313-.687 1.235 1.235 0 0 0-.891-.3 1.25 1.25 0 0 0-.891.295.911.911 0 0 0-.313.681v.023a.959.959 0 0 0 .325.741 1.26 1.26 0 0 0 .879.293z" fill="#c2d6ed"/></g><path fill="url(#H)" d="M985.848 322.92v40.835l14.614-10.531 14.615 10.531V322.92h-29.229z"/><rect x="243.937" y="107.353" width="321.039" height="234.21" rx="7.609" ry="7.609" fill="#d0d2d3"/><path fill="url(#I)" d="M243.937 146.071h321.039v200.06H243.937z"/><rect x="262.671" y="155.942" width="215.896" height="103.989" rx="2" ry="2" fill="#fff"/><rect x="486.132" y="156.309" width="59.878" height="71.577" rx="2" ry="2" fill="#fff"/><rect x="486.132" y="235.622" width="59.878" height="99.815" rx="2" ry="2" fill="#fff"/><rect x="262.396" y="268.49" width="216.172" height="66.947" rx="2" ry="2" fill="#fff"/><circle cx="256.882" cy="116.592" r="4.462" fill="#f26a75"/><circle cx="272.859" cy="116.592" r="4.462" fill="#ffdb6f"/><circle cx="288.836" cy="116.592" r="4.462" fill="#84cba8"/><rect x="372.879" y="165.546" width="97.002" height="48.292" rx="2" ry="2" fill="#e6e7e8"/><rect x="268.101" y="301.963" width="97.002" height="28.614" rx="2" ry="2" fill="#d0d2d3"/><rect x="372.879" y="301.963" width="97.002" height="28.614" rx="2" ry="2" fill="#e6e7e8"/><rect x="372.879" y="221.439" width="97.002" height="4" rx="2" ry="2" fill="#e6e7e8"/><rect x="372.879" y="230.307" width="97.002" height="4" rx="2" ry="2" fill="#e6e7e8"/><path d="M516.085 169.112c-9.461 0-14.435 7.217-12.972 15.215 1.463 8.1 12.972 25.944 12.972 25.944s11.8-18.921 12.972-25.846c1.366-8.29-3.608-15.313-12.972-15.313zm0 18.239a5.95 5.95 0 1 1 5.95-5.95 5.973 5.973 0 0 1-5.95 5.95z" fill="url(#J)"/><path d="M314.673 163.208a35.525 35.525 0 1 0 35.549 35.549 35.59 35.59 0 0 0-35.549-35.549zm24.41 57.461a24.824 24.824 0 0 0-17.429-19.432 12.777 12.777 0 1 0-13.961 0 24.824 24.824 0 0 0-17.429 19.432 32.821 32.821 0 1 1 48.819 0z" fill="url(#e)"/><rect x="262.95" y="243.763" width="217.08" height="16.523" rx="2" ry="2" fill="url(#K)"/><rect x="269.137" y="273.278" width="159.812" height="10.137" rx="2" ry="2" fill="url(#L)"/><rect x="269.137" y="289.217" width="152.244" height="4" rx="2" ry="2" fill="url(#M)"/><rect x="493.92" y="300.9" width="44.301" height="30.678" rx="2.015" ry="2.015" fill="url(#N)"/><rect x="493.92" y="273.613" width="44.301" height="3.317" rx="1.658" ry="1.658" fill="url(#O)"/><rect x="493.92" y="281.949" width="24.106" height="3.317" rx="1.658" ry="1.658" fill="url(#P)"/><rect x="493.132" y="289.534" width="45.907" height="4" rx="2" ry="2" fill="#bbbdbf"/><rect x="520.382" y="281.608" width="17.66" height="4" rx="2" ry="2" fill="#bbbdbf"/><path d="M525.511 324.679a9.44 9.44 0 0 1-3.879-18.047 10.345 10.345 0 1 0 4 18.044c-.032 0-.078.003-.121.003z" fill="#fff"/><rect x="493.92" y="239.911" width="45.119" height="28.579" rx="2" ry="2" fill="#e6e7e8"/><rect x="284.374" y="126.928" width="274.701" height="12.545" rx="6.272" ry="6.272" fill="#fff"/><path d="M277.141 131.77l-5.554-4.748a.73.73 0 0 0-.916 0 .5.5 0 0 0 0 .783l5.168 4.418-5.168 4.418a.5.5 0 0 0 0 .783.73.73 0 0 0 .916 0l5.554-4.749a.672.672 0 0 0 0-.9z" fill="#8077b7" opacity=".64"/><path d="M252.6 131.77l5.554-4.748a.73.73 0 0 1 .916 0 .5.5 0 0 1 0 .783l-5.168 4.418 5.168 4.418a.5.5 0 0 1 0 .783.73.73 0 0 1-.916 0l-5.554-4.749a.672.672 0 0 1 0-.9z" fill="#8077b7" opacity=".41"/><path d="M290.687 129.514h1.462v2.6a3.071 3.071 0 0 1 .274-.314 1.913 1.913 0 0 1 .331-.267 1.657 1.657 0 0 1 .4-.184 1.682 1.682 0 0 1 .5-.068 1.647 1.647 0 0 1 1.294.51 2.029 2.029 0 0 1 .457 1.4v3.338h-1.462v-2.869a1.158 1.158 0 0 0-.231-.782.822.822 0 0 0-.653-.264.87.87 0 0 0-.669.264 1.116 1.116 0 0 0-.245.782v2.869h-1.462zm8.695 7.109a2.413 2.413 0 0 1-.611-.072 1.088 1.088 0 0 1-.472-.255 1.235 1.235 0 0 1-.308-.477 2.146 2.146 0 0 1-.11-.745v-2.444h-.615v-1.25h.615v-1.318h1.462v1.318h1.212v1.25h-1.212v2.211c0 .334.157.5.472.5a1.431 1.431 0 0 0 .721-.192v1.173a2.191 2.191 0 0 1-1.153.3zm4.954 0a2.413 2.413 0 0 1-.611-.072 1.088 1.088 0 0 1-.472-.255 1.235 1.235 0 0 1-.308-.477 2.146 2.146 0 0 1-.11-.745v-2.444h-.615v-1.25h.615v-1.318h1.465v1.318h1.212v1.25H304.3v2.211c0 .334.157.5.472.5a1.431 1.431 0 0 0 .721-.192v1.173a2.191 2.191 0 0 1-1.153.3zm3.212-5.243h1.462v.74a2.323 2.323 0 0 1 .649-.6 1.793 1.793 0 0 1 .957-.235 2.3 2.3 0 0 1 .875.173 2.174 2.174 0 0 1 .75.515 2.554 2.554 0 0 1 .524.837 3.063 3.063 0 0 1 .2 1.14v.02a3.056 3.056 0 0 1-.2 1.14 2.589 2.589 0 0 1-.52.837 2.116 2.116 0 0 1-.745.515 2.319 2.319 0 0 1-.885.173 1.831 1.831 0 0 1-.967-.23 2.553 2.553 0 0 1-.64-.538v2.212h-1.462zm2.693 4.011a1.175 1.175 0 0 0 .485-.1 1.2 1.2 0 0 0 .4-.288 1.406 1.406 0 0 0 .274-.447 1.629 1.629 0 0 0 .1-.587v-.02a1.635 1.635 0 0 0-.1-.581 1.388 1.388 0 0 0-.274-.452 1.217 1.217 0 0 0-.4-.289 1.181 1.181 0 0 0-1.366.289 1.428 1.428 0 0 0-.269.452 1.614 1.614 0 0 0-.1.581v.02a1.615 1.615 0 0 0 .1.582 1.428 1.428 0 0 0 .269.452 1.153 1.153 0 0 0 .395.288 1.176 1.176 0 0 0 .486.1zm6.569 1.24a3.616 3.616 0 0 1-2.212-.778l.625-.962a3.5 3.5 0 0 0 .842.462 2.279 2.279 0 0 0 .784.153.818.818 0 0 0 .467-.105.328.328 0 0 0 .148-.279v-.02a.276.276 0 0 0-.086-.2.718.718 0 0 0-.236-.149 3.317 3.317 0 0 0-.341-.12c-.129-.039-.264-.08-.4-.125-.18-.052-.36-.114-.544-.187a1.949 1.949 0 0 1-.5-.289 1.405 1.405 0 0 1-.36-.437 1.329 1.329 0 0 1-.14-.635v-.02a1.558 1.558 0 0 1 .149-.7 1.542 1.542 0 0 1 .4-.515 1.741 1.741 0 0 1 .6-.317 2.481 2.481 0 0 1 .736-.105 3.32 3.32 0 0 1 1 .158 3.714 3.714 0 0 1 .928.438l-.558 1.011a4.669 4.669 0 0 0-.75-.352 1.982 1.982 0 0 0-.645-.13.67.67 0 0 0-.4.1.307.307 0 0 0-.135.255v.019a.25.25 0 0 0 .087.188.954.954 0 0 0 .23.154 3.155 3.155 0 0 0 .332.14c.125.045.259.09.4.135q.27.086.548.206a2.292 2.292 0 0 1 .5.294 1.466 1.466 0 0 1 .365.423 1.2 1.2 0 0 1 .145.606v.02a1.713 1.713 0 0 1-.149.745 1.382 1.382 0 0 1-.418.515 1.883 1.883 0 0 1-.631.3 2.856 2.856 0 0 1-.781.103zm3.973-5.251h1.549v1.539h-1.549zm0 3.616h1.549v1.539h-1.549zm7.156-6.136h1.24l-4.261 8.907h-1.241zm6.061 0h1.24l-4.261 8.907h-1.241z" fill="#8077b7" opacity=".42000002"/><path d="M336.3 131.38h1.481l.827 3.126.972-3.146h1.26l.981 3.155.847-3.136h1.452l-1.606 5.193h-1.317l-.991-3.164-1.01 3.164h-1.308zm9.241 0h1.481l.827 3.126.972-3.146h1.26l.981 3.155.847-3.136h1.452l-1.606 5.193h-1.317l-.991-3.164-1.01 3.164h-1.308zm9.243 0h1.481l.827 3.126.972-3.146h1.26l.981 3.155.847-3.136h1.448l-1.6 5.195h-1.317l-.991-3.164-1.01 3.164h-1.308zm9.611 3.62h1.548v1.539h-1.548zm6.213 1.651a2.947 2.947 0 0 1-1.073-.192 2.473 2.473 0 0 1-.855-.548 2.509 2.509 0 0 1-.562-.842 2.792 2.792 0 0 1-.2-1.082v-.02a2.887 2.887 0 0 1 .188-1.039 2.639 2.639 0 0 1 .524-.855 2.432 2.432 0 0 1 .8-.577 2.464 2.464 0 0 1 1.034-.212 2.5 2.5 0 0 1 1.115.231 2.256 2.256 0 0 1 .784.62 2.589 2.589 0 0 1 .462.895 3.692 3.692 0 0 1 .149 1.053v.183c0 .064-.009.132-.015.2h-3.588a1.233 1.233 0 0 0 .438.756 1.31 1.31 0 0 0 .822.255 1.636 1.636 0 0 0 .654-.125 2.269 2.269 0 0 0 .6-.4l.837.74a2.6 2.6 0 0 1-.886.707 2.739 2.739 0 0 1-1.228.252zm.942-3.1a1.422 1.422 0 0 0-.347-.794.957.957 0 0 0-.74-.3.986.986 0 0 0-.746.3 1.5 1.5 0 0 0-.37.8zm4.85.368l-1.741-2.539h1.568l.962 1.5.972-1.5h1.529l-1.741 2.51 1.818 2.646H378.2l-1.039-1.606-1.038 1.606h-1.533zm6.663 2.712a2.282 2.282 0 0 1-.687-.1 1.624 1.624 0 0 1-.563-.3 1.467 1.467 0 0 1-.38-.5 1.569 1.569 0 0 1-.139-.679v-.02a1.618 1.618 0 0 1 .153-.73 1.405 1.405 0 0 1 .428-.51 1.934 1.934 0 0 1 .654-.3 3.277 3.277 0 0 1 .842-.1 3.631 3.631 0 0 1 .688.058 4.293 4.293 0 0 1 .572.154v-.087a.877.877 0 0 0-.278-.7 1.239 1.239 0 0 0-.827-.24 3.457 3.457 0 0 0-.746.072 4.982 4.982 0 0 0-.678.207l-.365-1.116a5.742 5.742 0 0 1 .885-.3 4.649 4.649 0 0 1 1.115-.115 3.154 3.154 0 0 1 1.034.148 1.841 1.841 0 0 1 .707.428 1.738 1.738 0 0 1 .424.707 3.085 3.085 0 0 1 .134.938v2.991h-1.413v-.558a2.034 2.034 0 0 1-.645.476 2.113 2.113 0 0 1-.915.176zm.442-1.01a1.29 1.29 0 0 0 .832-.25.8.8 0 0 0 .313-.654v-.26a2.22 2.22 0 0 0-.428-.139 2.313 2.313 0 0 0-.5-.054 1.3 1.3 0 0 0-.741.184.6.6 0 0 0-.27.528V135a.541.541 0 0 0 .222.462.944.944 0 0 0 .573.16zm4.753-4.241h1.462v.736a3.071 3.071 0 0 1 .274-.314 1.913 1.913 0 0 1 .331-.267 1.642 1.642 0 0 1 .409-.184 1.915 1.915 0 0 1 1.385.145 1.436 1.436 0 0 1 .572.61 2.367 2.367 0 0 1 .751-.615 2.068 2.068 0 0 1 .942-.208 1.687 1.687 0 0 1 1.279.481 1.965 1.965 0 0 1 .462 1.413v3.357h-1.462v-2.869a1.2 1.2 0 0 0-.222-.782.783.783 0 0 0-.635-.264.827.827 0 0 0-.649.264 1.144 1.144 0 0 0-.235.782v2.869h-1.462v-2.869a1.2 1.2 0 0 0-.222-.782.783.783 0 0 0-.635-.264.827.827 0 0 0-.649.264 1.144 1.144 0 0 0-.235.782v2.869h-1.462zm10.099 0h1.462v.74a2.323 2.323 0 0 1 .649-.6 1.793 1.793 0 0 1 .957-.235 2.3 2.3 0 0 1 .875.173 2.174 2.174 0 0 1 .75.515 2.554 2.554 0 0 1 .524.837 3.063 3.063 0 0 1 .2 1.14v.02a3.056 3.056 0 0 1-.2 1.14 2.589 2.589 0 0 1-.52.837 2.116 2.116 0 0 1-.745.515 2.319 2.319 0 0 1-.885.173 1.831 1.831 0 0 1-.967-.23 2.553 2.553 0 0 1-.64-.538v2.212h-1.462zm2.693 4.011a1.175 1.175 0 0 0 .485-.1 1.2 1.2 0 0 0 .4-.288 1.406 1.406 0 0 0 .274-.447 1.629 1.629 0 0 0 .1-.587v-.02a1.635 1.635 0 0 0-.1-.581 1.388 1.388 0 0 0-.274-.452 1.217 1.217 0 0 0-.4-.289 1.181 1.181 0 0 0-1.366.289 1.428 1.428 0 0 0-.269.452 1.614 1.614 0 0 0-.1.581v.02a1.615 1.615 0 0 0 .1.582 1.428 1.428 0 0 0 .269.452 1.153 1.153 0 0 0 .395.288 1.176 1.176 0 0 0 .487.1zm4.83-5.877h1.462v7.021h-1.462zm6.242 7.137a2.947 2.947 0 0 1-1.073-.192 2.473 2.473 0 0 1-.855-.548 2.509 2.509 0 0 1-.562-.842 2.792 2.792 0 0 1-.2-1.082v-.02a2.887 2.887 0 0 1 .188-1.039 2.639 2.639 0 0 1 .524-.855 2.432 2.432 0 0 1 .8-.577 2.464 2.464 0 0 1 1.034-.212 2.5 2.5 0 0 1 1.115.231 2.256 2.256 0 0 1 .784.62 2.589 2.589 0 0 1 .462.895 3.692 3.692 0 0 1 .149 1.053v.183c0 .064-.009.132-.015.2h-3.588a1.233 1.233 0 0 0 .438.756 1.31 1.31 0 0 0 .822.255 1.636 1.636 0 0 0 .654-.125 2.269 2.269 0 0 0 .6-.4l.837.74a2.6 2.6 0 0 1-.886.707 2.739 2.739 0 0 1-1.228.252zm.942-3.1a1.422 1.422 0 0 0-.347-.794.957.957 0 0 0-.74-.3.986.986 0 0 0-.746.3 1.5 1.5 0 0 0-.37.8zm3.415 1.449h1.548v1.539h-1.548zm6.205 1.651a2.715 2.715 0 0 1-1.073-.211 2.6 2.6 0 0 1-1.408-1.419 2.667 2.667 0 0 1-.2-1.034v-.02a2.7 2.7 0 0 1 .2-1.039 2.657 2.657 0 0 1 .558-.855 2.582 2.582 0 0 1 .851-.577 2.745 2.745 0 0 1 1.092-.212 2.791 2.791 0 0 1 1.212.231 2.7 2.7 0 0 1 .847.635l-.895.962a2.366 2.366 0 0 0-.515-.414 1.29 1.29 0 0 0-.658-.154 1.132 1.132 0 0 0-.506.111 1.236 1.236 0 0 0-.394.3 1.366 1.366 0 0 0-.26.447 1.581 1.581 0 0 0-.092.543v.02a1.649 1.649 0 0 0 .092.558 1.3 1.3 0 0 0 .265.452 1.253 1.253 0 0 0 .413.3 1.282 1.282 0 0 0 .539.11 1.317 1.317 0 0 0 .64-.149 2.672 2.672 0 0 0 .543-.4l.856.866a3.289 3.289 0 0 1-.856.678 2.578 2.578 0 0 1-1.251.271zm6.549 0a2.893 2.893 0 0 1-1.105-.207 2.681 2.681 0 0 1-.881-.567 2.648 2.648 0 0 1-.582-.846 2.594 2.594 0 0 1-.211-1.044v-.02a2.594 2.594 0 0 1 .211-1.044 2.668 2.668 0 0 1 .587-.851 2.764 2.764 0 0 1 .885-.577 2.874 2.874 0 0 1 1.116-.212 2.924 2.924 0 0 1 1.106.207 2.7 2.7 0 0 1 .88.567 2.641 2.641 0 0 1 .582.847 2.589 2.589 0 0 1 .211 1.043v.02a2.594 2.594 0 0 1-.211 1.044 2.683 2.683 0 0 1-.587.852 2.8 2.8 0 0 1-.885.577 2.891 2.891 0 0 1-1.116.211zm.02-1.26a1.36 1.36 0 0 0 .563-.11 1.247 1.247 0 0 0 .419-.3 1.326 1.326 0 0 0 .264-.447 1.581 1.581 0 0 0 .092-.543v-.02a1.538 1.538 0 0 0-.1-.543 1.368 1.368 0 0 0-.712-.765 1.292 1.292 0 0 0-.549-.116 1.348 1.348 0 0 0-.562.111 1.24 1.24 0 0 0-.418.3 1.312 1.312 0 0 0-.265.447 1.581 1.581 0 0 0-.092.543v.02a1.522 1.522 0 0 0 .1.544 1.358 1.358 0 0 0 .278.452 1.39 1.39 0 0 0 .429.313 1.278 1.278 0 0 0 .553.114zm4.8-4.011h1.462v.736a3.071 3.071 0 0 1 .274-.314 1.913 1.913 0 0 1 .331-.267 1.642 1.642 0 0 1 .409-.184 1.915 1.915 0 0 1 1.385.145 1.436 1.436 0 0 1 .572.61 2.367 2.367 0 0 1 .751-.615 2.068 2.068 0 0 1 .942-.208 1.687 1.687 0 0 1 1.279.481 1.965 1.965 0 0 1 .462 1.413v3.357h-1.462v-2.869a1.2 1.2 0 0 0-.222-.782.783.783 0 0 0-.635-.264.827.827 0 0 0-.649.264 1.144 1.144 0 0 0-.235.782v2.869h-1.462v-2.869a1.2 1.2 0 0 0-.222-.782.783.783 0 0 0-.635-.264.827.827 0 0 0-.649.264 1.144 1.144 0 0 0-.235.782v2.869h-1.462z" fill="#8077b7"/><path d="M609.141 187.69c23.959-38.929 69.133-39.779 99.646-2.55" fill="none" stroke="#8077b7" stroke-linecap="round" stroke-linejoin="round" stroke-width="3"/><path fill="#8077b7" d="M692.897 185.729l.324-2.985 14.704 1.615.536-14.784 3.001.111-.657 18.006-17.908-1.963z"/><path d="M712.353 216.043c-23.959 38.929-69.133 39.779-99.646 2.55" fill="none" stroke="#8077b7" stroke-linecap="round" stroke-linejoin="round" stroke-width="3"/><path fill="#8077b7" d="M628.597 218.004l-.325 2.985-14.703-1.615-.537 14.784-3-.111.657-18.006 17.908 1.963z"/><path fill="none" stroke="#8077b7" stroke-linecap="round" stroke-linejoin="round" stroke-width="3" d="M958.792 363.755v9"/><path fill="none" stroke="#8077b7" stroke-linecap="round" stroke-linejoin="round" stroke-width="3" stroke-dasharray="13.77100563 13.77100563" d="M958.792 386.526v20.656"/><path fill="none" stroke="#8077b7" stroke-linecap="round" stroke-linejoin="round" stroke-width="3" d="M958.792 414.068v9h-9"/><path fill="none" stroke="#8077b7" stroke-linecap="round" stroke-linejoin="round" stroke-width="3" stroke-dasharray="18.49435043 18.49435043" d="M931.298 423.068H422.703"/><path fill="none" stroke="#8077b7" stroke-linecap="round" stroke-linejoin="round" stroke-width="3" d="M413.456 423.068h-9v-9"/><path fill="none" stroke="#8077b7" stroke-linecap="round" stroke-linejoin="round" stroke-width="3" stroke-dasharray="11.72701263 11.72701263" d="M404.456 402.341V384.75"/><path fill="none" stroke="#8077b7" stroke-linecap="round" stroke-linejoin="round" stroke-width="3" d="M404.456 378.887v-9"/><path fill="#8077b7" d="M416.726 379.827l-2.197 2.047-10.07-10.836-10.072 10.836-2.197-2.047 12.269-13.194 12.267 13.194z"/><path d="M1021.189 691.891H896.4a29.622 29.622 0 0 1-28.168-38.865l14.262-45.8a54.14 54.14 0 0 1 28.049-30.783h96.745a54.08 54.08 0 0 1 27.692 30.664l14.381 45.916a29.622 29.622 0 0 1-28.172 38.868z" fill="url(#g)"/><path d="M1022.31 557.1l-63.93-.13-63.807-.131 39.634-59.785c5.767-8.273 14.356-13.524 24.172-13.394h.736c9.939.131 18.9 5.121 24.787 13.788z" fill="#f26a75"/><path d="M1024.161 560.608c0 3.812-1.664 9.418-9.152 14.911-.119 0-.119 0-.119.112l-51.7 38.569a6.3 6.3 0 0 1-3.684 1.233 1.589 1.589 0 0 1-.713-.112 5.642 5.642 0 0 1-2.852-1.121l-25.822-18.75-26.829-19.481h-.119l-.119-.112v-.112c-7.963-5.493-9.627-11.212-9.627-15.135a15.431 15.431 0 0 1 3.566-9.642c6.3-7.96 18.9-12.669 32.09-15.359v14.911l29.713-.111 29.713-.112v-14.69c13.43 2.691 26.147 7.511 32.327 15.583a16 16 0 0 1 3.327 9.418z" stroke="#f26a75" stroke-miterlimit="10" stroke-width="5" fill="url(#Q)"/><path d="M933.619 573.88v20.785a5.316 5.316 0 0 0 2.347 4.394l20.7 14.059a5.531 5.531 0 0 0 6.384-.131l17.762-13.175a5.311 5.311 0 0 0 2.162-4.263v-20.572" fill="url(#f)"/><path d="M993.552 535.989V554.2c1.055 13.3-15.93 40.235-34.7 40.235s-34.819-25.751-34.819-39.958v-18.489a162.773 162.773 0 0 1 69.52 0z" fill="#ffdaaa"/><path d="M993.589 539.017v18.214c1.055 13.3-15.93 40.235-34.7 40.235s-34.819-25.751-34.819-39.958v-18.491a162.773 162.773 0 0 1 69.52 0z" fill="#ffdaaa"/><path d="M993.5 539.23v18.214c1.055 13.3-15.93 40.235-34.7 40.235s-34.819-25.751-34.819-39.958v-18.492a162.773 162.773 0 0 1 69.52 0z" fill="#7e77b6" opacity=".15"/><path d="M993.589 534.343v18.214c1.055 13.3-15.93 40.235-34.7 40.235s-34.819-25.751-34.819-39.958v-18.491a162.773 162.773 0 0 1 69.52 0z" fill="#ffdaaa"/><path d="M993.5 544.79c-9.264 2.985-20.969 4.678-34.147 4.678-13.654 0-25.94-1.847-35.328-5.027-.043-.015 0 0-.018-.229-.136-1.708.173-5.164-.026-5.27-9.081-4.848 6.882-29.13 35.372-29.13 28.841 0 34.9 22.23 34.287 34.28-.012.152.006.649-.14.698z" opacity=".24" fill="url(#R)"/><ellipse cx="958.852" cy="524.538" rx="63.458" ry="18.023" fill="#ba78b1"/><ellipse cx="958.852" cy="518.7" rx="44.353" ry="12.597" fill="#8077b7"/><path fill="#8077b7" d="M914.499 518.7l6.772-24.37h75.162l6.772 24.37"/><ellipse cx="958.852" cy="494.33" rx="37.581" ry="10.674" fill="#ba78b1"/><path fill="none" stroke="#f26a75" stroke-linecap="round" stroke-linejoin="round" stroke-width="3" d="M1003.768 689.513H659.974V511.449"/><path d="M1014.86 592.793H902.725a6.013 6.013 0 0 0-6.013 6.013v86.877h124.161v-86.877a6.013 6.013 0 0 0-6.013-6.013z" fill="#77c2e1" opacity=".64" filter="url(#i)"/><path d="M1007.1 612.657h-96.61a5.18 5.18 0 0 0-5.18 5.18v74.846h106.966v-74.845a5.18 5.18 0 0 0-5.176-5.181z" fill="url(#S)"/><circle cx="660.662" cy="446.938" r="57.269" fill="#fff"/><path d="M650.532 387.489c1.012-.2 2.022-.394 3.038-.551m-39.092 88.353l.1-.039c-.11-.186-.217-.372-.325-.559zm96.66 40.723c.52-.336 1.039-.612 1.559-.9l-8.881-13.714a5.873 5.873 0 0 0-.684-.738c-1.559 1.213-3.156 2.388-4.834 3.474-1.739 1.126-3.534 2.087-5.333 3.033a6.15 6.15 0 0 0 .489.942l8.877 13.713c.475-.357.951-.715 1.462-1.046zm-14.7-14.763c-1.255.813-2.552 1.506-3.841 2.22-.308.171-.609.366-.92.531s-.606.368-.917.528a65.333 65.333 0 0 1-20.33 6.317 63.433 63.433 0 0 1-49.23-13.872 63.642 63.642 0 0 1-13.144-14.636 64 64 0 0 1 18.915-88.392 62.3 62.3 0 0 1 9.285-4.9 63.97 63.97 0 0 1 7.832-2.788c1.489-.422 2.979-.828 4.483-1.142.937-.2 1.878-.348 2.82-.5 1.288-.209 2.579-.342 3.87-.478 1.931-.2 3.862-.328 5.794-.349.318 0 .636-.04.954-.037 1.131.007 2.258.084 3.386.15a64.336 64.336 0 0 1 12.475 1.986c.615.161 1.227.329 1.841.492.362.1.728.179 1.085.29.259.081.528.126.786.21 1.248.407 2.472.886 3.692 1.375 1.8.721 3.579 1.5 5.316 2.375.954.482 1.885 1.01 2.816 1.541q2.525 1.439 4.921 3.116 2.309 1.614 4.492 3.44c.136.114.266.235.4.349.65.548 1.3 1.092 1.929 1.673a65.029 65.029 0 0 1 5.161 5.378 62.982 62.982 0 0 1 5 6.669c.015.023.031.043.045.065a63.915 63.915 0 0 1-13.686 84.616c-.273.218-.572.408-.848.622-.294.226-.609.429-.907.651-1.143.849-2.271 1.72-3.478 2.5zm18.757-42.2a54.254 54.254 0 0 0-4.125-34.9 55.337 55.337 0 0 0-3.448-6.275c-.063-.1-.137-.185-.2-.282a54.144 54.144 0 0 0-10.036-11.358c-.9-.769-1.791-1.539-2.731-2.249-.708-.536-1.435-1.044-2.165-1.548-.233-.161-.454-.338-.69-.493a54.785 54.785 0 0 0-9.384-4.929c-1.461-.6-2.942-1.155-4.464-1.627-.4-.125-.819-.219-1.228-.327-.567-.15-1.13-.309-1.7-.452-.627-.158-1.235-.361-1.87-.5-.111-.023-.222-.031-.333-.054-1.5-.312-3-.551-4.5-.736a54.3 54.3 0 0 0-13.2.007 54.024 54.024 0 0 0-15.03 4.064 55.2 55.2 0 0 0-6.471 3.332c-.545.327-1.111.608-1.647.955a55.026 55.026 0 0 0-19.908 23 55.088 55.088 0 0 0-3.857 11.476 54.241 54.241 0 0 0 6.045 38.54l.221.6.1-.039c.406.689.766 1.4 1.2 2.073a55.378 55.378 0 0 0 3.78 5.1 54.645 54.645 0 0 0 4.722 5.077 55.217 55.217 0 0 0 15.006 9.986 54.685 54.685 0 0 0 5.342 2.1 55.623 55.623 0 0 0 5.617 1.513c.279.06.56.082.839.137a55.528 55.528 0 0 0 6.272.854 54.684 54.684 0 0 0 23.352-3.218 55 55 0 0 0 10.713-5.346 54.344 54.344 0 0 0 23.776-34.481zm36.348 101.825l-28.593-44.163a1.341 1.341 0 0 0-.729-.486c-1.165-.38-3.435-.126-6.1 1.015-.255.109-.516.253-.778.378s-.5.278-.757.413c-.528.281-1.041.511-1.584.862l-7.343 4.758c-.509.329-.993.682-1.462 1.043-.233.18-.446.366-.667.551s-.444.375-.653.567a14.534 14.534 0 0 0-2.527 2.928c-.82 1.315-1.111 2.529-.748 3.093L728.189 576c.787 1.187 5.139.928 9.947-2.187l7.346-4.753c4.81-3.117 6.835-6.989 6.059-8.184z" fill="url(#T)"/><circle cx="661.715" cy="447.596" r="51.609" transform="rotate(-32.92 661.70507931 447.59225904)" fill="url(#U)" opacity=".22"/><g clip-path="url(#V)"><path d="M613.2 441.865h6.345v1.649h-4.515v1.709H619v1.649h-3.973v1.77h4.573v1.649h-6.4zm10.362 4.142l-2.817-4.142h2.167l1.77 2.732 1.782-2.732h2.106l-2.816 4.117 2.937 4.31h-2.167l-1.89-2.89-1.9 2.89h-2.106zm9.401-4.207h1.709l3.612 8.487h-1.938l-.771-1.89h-3.563l-.771 1.89h-1.89zm1.95 4.96l-1.119-2.732-1.12 2.732zm4.67-4.895h2l2.215 3.563 2.215-3.563h2v8.427h-1.83v-5.5l-2.372 3.6h-.048l-2.348-3.563v5.466h-1.83zm10.449 0h3.443a4.045 4.045 0 0 1 1.354.211 2.867 2.867 0 0 1 1.011.6 2.6 2.6 0 0 1 .639.921 3.06 3.06 0 0 1 .223 1.186v.024a2.966 2.966 0 0 1-.265 1.288 2.637 2.637 0 0 1-.728.927 3.157 3.157 0 0 1-1.084.56 4.571 4.571 0 0 1-1.33.187h-1.408v2.528h-1.854zm3.323 4.249a1.506 1.506 0 0 0 1.083-.367 1.2 1.2 0 0 0 .386-.908v-.024a1.151 1.151 0 0 0-.4-.951 1.709 1.709 0 0 0-1.1-.325h-1.433v2.576zm4.719-4.249h1.854v6.754h4.2v1.673h-6.056zm7.451 0h6.345v1.649h-4.515v1.709h3.973v1.649h-3.973v1.77h4.575v1.649h-6.405zm7.801 6.501h1.938v1.926h-1.938zm7.657 2.071a4.363 4.363 0 0 1-1.722-.337 4.239 4.239 0 0 1-1.372-.921 4.188 4.188 0 0 1-.9-1.379 4.436 4.436 0 0 1-.325-1.7v-.024a4.388 4.388 0 0 1 .325-1.69 4.339 4.339 0 0 1 .9-1.385 4.194 4.194 0 0 1 1.384-.939 4.513 4.513 0 0 1 1.782-.343 5.555 5.555 0 0 1 1.077.1 4.5 4.5 0 0 1 .885.265 3.855 3.855 0 0 1 .734.409 4.941 4.941 0 0 1 .626.529l-1.18 1.36a4.481 4.481 0 0 0-1-.7 2.571 2.571 0 0 0-1.15-.252 2.33 2.33 0 0 0-1.757.77 2.643 2.643 0 0 0-.506.837 2.85 2.85 0 0 0-.181 1.018v.023a2.894 2.894 0 0 0 .181 1.023 2.664 2.664 0 0 0 .5.843 2.308 2.308 0 0 0 1.763.782 2.58 2.58 0 0 0 1.223-.265 4.725 4.725 0 0 0 .993-.722l1.18 1.191a6.1 6.1 0 0 1-.675.626 4.029 4.029 0 0 1-.764.476 3.96 3.96 0 0 1-.909.3 5.465 5.465 0 0 1-1.112.105zm9.029 0a4.6 4.6 0 0 1-1.794-.343 4.456 4.456 0 0 1-1.414-.928 4.142 4.142 0 0 1-.928-1.372 4.325 4.325 0 0 1-.331-1.691v-.024a4.238 4.238 0 0 1 .338-1.69 4.312 4.312 0 0 1 2.353-2.324 4.646 4.646 0 0 1 1.8-.343 4.6 4.6 0 0 1 1.794.343 4.471 4.471 0 0 1 1.415.928 4.154 4.154 0 0 1 .927 1.372 4.321 4.321 0 0 1 .331 1.691v.023a4.256 4.256 0 0 1-.337 1.691 4.318 4.318 0 0 1-2.354 2.324 4.646 4.646 0 0 1-1.8.343zm.023-1.71a2.527 2.527 0 0 0 1.023-.2 2.345 2.345 0 0 0 .8-.565 2.662 2.662 0 0 0 .518-.837 2.77 2.77 0 0 0 .187-1.018v-.024a2.811 2.811 0 0 0-.187-1.022 2.525 2.525 0 0 0-1.342-1.415 2.485 2.485 0 0 0-1.023-.21 2.512 2.512 0 0 0-1.029.2 2.36 2.36 0 0 0-.795.565 2.673 2.673 0 0 0-.518.837 2.77 2.77 0 0 0-.187 1.018v.023a2.812 2.812 0 0 0 .187 1.023 2.533 2.533 0 0 0 .529.843 2.575 2.575 0 0 0 .807.572 2.459 2.459 0 0 0 1.03.21zm6.115-6.862h2l2.215 3.563 2.215-3.563h2v8.427h-1.83v-5.5l-2.372 3.6h-.048l-2.348-3.563v5.466h-1.83zm10.25 1.975h1.938v1.926H706.4zm0 4.526h1.938v1.926H706.4zm-78.221 9.762l-1.469.361-.385-1.517 2.42-.723h1.264v8.487h-1.83zm3.527 5.143l2.8-2.3q.4-.324.675-.582a3.787 3.787 0 0 0 .451-.493 1.762 1.762 0 0 0 .253-.457 1.46 1.46 0 0 0 .078-.486 1.033 1.033 0 0 0-.313-.817 1.193 1.193 0 0 0-.818-.276 1.443 1.443 0 0 0-.873.277 4.88 4.88 0 0 0-.849.854l-1.3-1.048a7.32 7.32 0 0 1 .632-.751 3.569 3.569 0 0 1 .687-.552 2.955 2.955 0 0 1 .813-.339 4.029 4.029 0 0 1 1.011-.115 3.575 3.575 0 0 1 1.187.187 2.681 2.681 0 0 1 .914.523 2.336 2.336 0 0 1 .591.818 2.661 2.661 0 0 1 .21 1.071v.024a2.971 2.971 0 0 1-.139.945 2.8 2.8 0 0 1-.409.782 4.678 4.678 0 0 1-.691.734q-.422.368-.976.8l-1.372 1.059h3.672v1.6h-6.236zm7.656-.459h1.938v1.926h-1.938zm6.438 2.07a4.261 4.261 0 0 1-1.944-.406 4.154 4.154 0 0 1-1.343-1.061l1.276-1.218a3.351 3.351 0 0 0 .909.752 2.315 2.315 0 0 0 1.125.259 1.3 1.3 0 0 0 .861-.275.917.917 0 0 0 .331-.743v-.023a.883.883 0 0 0-.434-.791 2.264 2.264 0 0 0-1.216-.275h-.765l-.289-1.175 2.011-2.014h-3.311v-1.6h5.705v1.4l-2.142 2.034a4.382 4.382 0 0 1 .839.229 2.476 2.476 0 0 1 .728.434 2.053 2.053 0 0 1 .515.692 2.37 2.37 0 0 1 .194 1v.024a2.787 2.787 0 0 1-.213 1.1 2.581 2.581 0 0 1-.605.873 2.714 2.714 0 0 1-.962.577 3.7 3.7 0 0 1-1.27.207zm8.526-1.962h-4.117l-.3-1.312 4.623-5.357h1.568v5.165h1.132v1.5H656.1v1.817h-1.77zm0-1.5v-2.63l-2.239 2.625zm4.249 1.392h1.938v1.926h-1.938zm6.369 2.07a4.377 4.377 0 0 1-1.782-.335 4.754 4.754 0 0 1-1.372-.92l1.119-1.333a4.407 4.407 0 0 0 .964.674 2.31 2.31 0 0 0 1.047.24 1.608 1.608 0 0 0 1.029-.3 1.049 1.049 0 0 0 .379-.871v-.024a.988.988 0 0 0-.415-.848 1.787 1.787 0 0 0-1.077-.3 3.036 3.036 0 0 0-.753.09 4.26 4.26 0 0 0-.655.223l-1.072-.71.241-4.153h5.187v1.625h-3.6l-.1 1.468c.168-.04.337-.074.5-.1a3.7 3.7 0 0 1 .6-.042 4.1 4.1 0 0 1 1.151.156 2.711 2.711 0 0 1 .943.48 2.211 2.211 0 0 1 .636.835 2.938 2.938 0 0 1 .23 1.219v.024a3.01 3.01 0 0 1-.23 1.207 2.592 2.592 0 0 1-.648.913 2.874 2.874 0 0 1-1.016.583 4.069 4.069 0 0 1-1.306.199zm7.993 0a3.836 3.836 0 0 1-1.408-.229 2.972 2.972 0 0 1-1.023-.675 3.228 3.228 0 0 1-.729-1.2 5.957 5.957 0 0 1-.271-1.992v-.024a7.09 7.09 0 0 1 .223-1.817 4.208 4.208 0 0 1 .68-1.457 3.258 3.258 0 0 1 1.156-.969 3.556 3.556 0 0 1 1.637-.355 4.869 4.869 0 0 1 .795.06 3.476 3.476 0 0 1 .674.18 3.761 3.761 0 0 1 .6.293 5.709 5.709 0 0 1 .566.388l-.976 1.428c-.137-.1-.269-.2-.4-.283a2.423 2.423 0 0 0-.4-.211 2.543 2.543 0 0 0-.434-.132 2.39 2.39 0 0 0-.494-.048 1.485 1.485 0 0 0-.691.151 1.56 1.56 0 0 0-.506.411 1.959 1.959 0 0 0-.331.624 3.924 3.924 0 0 0-.169.775 4.39 4.39 0 0 1 .717-.373 2.689 2.689 0 0 1 1.029-.169 3.8 3.8 0 0 1 1.168.175 2.727 2.727 0 0 1 .938.512 2.38 2.38 0 0 1 .626.837 2.765 2.765 0 0 1 .229 1.161v.024a2.771 2.771 0 0 1-.921 2.106 3.005 3.005 0 0 1-1.017.6 3.768 3.768 0 0 1-1.268.209zm-.066-1.6a1.534 1.534 0 0 0 1.07-.347 1.147 1.147 0 0 0 .381-.887v-.024a1.113 1.113 0 0 0-.394-.88 1.594 1.594 0 0 0-1.082-.342 1.565 1.565 0 0 0-1.069.336 1.109 1.109 0 0 0-.381.874v.024a1.147 1.147 0 0 0 .393.892 1.556 1.556 0 0 0 1.082.352zm4.7-.47h1.938v1.926h-1.938zm7.477-4.901h-3.961v-1.6h6.067v1.4l-3.78 7.03h-2.095zm6.464 6.946a4.591 4.591 0 0 1-1.294-.174 3.283 3.283 0 0 1-1.029-.494 2.38 2.38 0 0 1-.681-.765 2.03 2.03 0 0 1-.246-1v-.024a2.082 2.082 0 0 1 .343-1.246 2.527 2.527 0 0 1 1.018-.789 2.493 2.493 0 0 1-.783-.729 1.95 1.95 0 0 1-.288-1.113v-.023a1.99 1.99 0 0 1 .21-.9 2.194 2.194 0 0 1 .6-.734 2.975 2.975 0 0 1 .933-.493 4.162 4.162 0 0 1 2.426 0 3.036 3.036 0 0 1 .938.487 2.112 2.112 0 0 1 .6.734 2.028 2.028 0 0 1 .211.909v.023a1.95 1.95 0 0 1-.289 1.113 2.493 2.493 0 0 1-.783.729 3.115 3.115 0 0 1 1 .789 1.863 1.863 0 0 1 .36 1.2v.024a2.172 2.172 0 0 1-.246 1.047 2.321 2.321 0 0 1-.681.776 3.172 3.172 0 0 1-1.029.488 4.741 4.741 0 0 1-1.29.165zm0-1.528a1.7 1.7 0 0 0 1.071-.3.916.916 0 0 0 .386-.747v-.023a.866.866 0 0 0-.409-.765 2.156 2.156 0 0 0-2.095 0 .865.865 0 0 0-.41.765v.023a.919.919 0 0 0 .386.74 1.675 1.675 0 0 0 1.071.307zm0-3.575a1.277 1.277 0 0 0 .879-.289.94.94 0 0 0 .325-.734v-.024a.929.929 0 0 0-.313-.687 1.235 1.235 0 0 0-.891-.3 1.25 1.25 0 0 0-.891.295.911.911 0 0 0-.313.681v.023a.959.959 0 0 0 .325.741 1.26 1.26 0 0 0 .879.294z" fill="#f26a75"/><path d="M603.518 408.836h6.345v1.649h-4.515v1.709h3.973v1.649h-3.973v1.77h4.575v1.649h-6.405zm7.343 0h2.046l2.2 5.935 2.2-5.935h2l-3.407 8.487h-1.638zm13.7 8.571a4.363 4.363 0 0 1-1.722-.337 4.239 4.239 0 0 1-1.372-.921 4.188 4.188 0 0 1-.9-1.379 4.436 4.436 0 0 1-.325-1.7v-.024a4.388 4.388 0 0 1 .325-1.69 4.339 4.339 0 0 1 .9-1.385 4.194 4.194 0 0 1 1.384-.939 4.513 4.513 0 0 1 1.782-.343 5.555 5.555 0 0 1 1.077.1 4.5 4.5 0 0 1 .885.265 3.855 3.855 0 0 1 .734.409 4.941 4.941 0 0 1 .626.529l-1.18 1.36a4.481 4.481 0 0 0-1-.7 2.571 2.571 0 0 0-1.15-.252 2.33 2.33 0 0 0-1.757.77 2.643 2.643 0 0 0-.506.837 2.85 2.85 0 0 0-.181 1.018v.023a2.894 2.894 0 0 0 .181 1.023 2.664 2.664 0 0 0 .5.843 2.308 2.308 0 0 0 1.763.782 2.58 2.58 0 0 0 1.223-.265 4.725 4.725 0 0 0 .993-.722l1.18 1.191a6.1 6.1 0 0 1-.675.626 4.029 4.029 0 0 1-.764.476 3.96 3.96 0 0 1-.909.3 5.465 5.465 0 0 1-1.112.105zm7.234-4.429l-2.817-4.142h2.167l1.77 2.732 1.782-2.732h2.103l-2.816 4.117 2.937 4.31h-2.167l-1.89-2.89-1.9 2.89h-2.106zm9.405-4.203h1.709l3.612 8.487h-1.938l-.771-1.89h-3.563l-.771 1.89h-1.89zm1.95 4.96L642.027 411l-1.12 2.732zm4.666-4.899h2l2.215 3.563 2.215-3.563h2v8.427h-1.83v-5.5l-2.372 3.6h-.048l-2.348-3.563v5.466h-1.83zm10.45 0h3.443a4.045 4.045 0 0 1 1.354.211 2.867 2.867 0 0 1 1.011.6 2.6 2.6 0 0 1 .639.921 3.06 3.06 0 0 1 .223 1.186v.024a2.966 2.966 0 0 1-.265 1.288 2.637 2.637 0 0 1-.729.927 3.157 3.157 0 0 1-1.084.56 4.571 4.571 0 0 1-1.33.187h-1.408v2.528h-1.854zm3.323 4.249a1.506 1.506 0 0 0 1.083-.367 1.2 1.2 0 0 0 .386-.908v-.024a1.151 1.151 0 0 0-.4-.951 1.709 1.709 0 0 0-1.1-.325h-1.438v2.576zm4.719-4.249h1.854v6.754h4.2v1.673h-6.056zm10.34-.061h1.709l3.612 8.487h-1.938l-.771-1.89h-3.56l-.771 1.89h-1.89zm1.95 4.96L677.479 411l-1.12 2.732zm4.402 1.602h1.938v1.926H683zm7.661 2.07a4.363 4.363 0 0 1-1.722-.337 4.239 4.239 0 0 1-1.372-.921 4.188 4.188 0 0 1-.9-1.379 4.436 4.436 0 0 1-.325-1.7v-.024a4.388 4.388 0 0 1 .325-1.69 4.339 4.339 0 0 1 .9-1.385 4.194 4.194 0 0 1 1.384-.939 4.513 4.513 0 0 1 1.782-.343 5.555 5.555 0 0 1 1.077.1 4.5 4.5 0 0 1 .885.265 3.855 3.855 0 0 1 .734.409 4.941 4.941 0 0 1 .626.529l-1.18 1.36a4.481 4.481 0 0 0-1-.7 2.571 2.571 0 0 0-1.15-.252 2.33 2.33 0 0 0-1.757.77 2.643 2.643 0 0 0-.506.837 2.85 2.85 0 0 0-.181 1.018v.023a2.894 2.894 0 0 0 .181 1.023 2.664 2.664 0 0 0 .5.843 2.308 2.308 0 0 0 1.763.782 2.58 2.58 0 0 0 1.223-.265 4.725 4.725 0 0 0 .993-.722l1.18 1.191a6.1 6.1 0 0 1-.675.626 4.029 4.029 0 0 1-.764.476 3.96 3.96 0 0 1-.909.3 5.465 5.465 0 0 1-1.112.105zm9.028 0a4.6 4.6 0 0 1-1.794-.343 4.456 4.456 0 0 1-1.414-.928 4.142 4.142 0 0 1-.928-1.372 4.325 4.325 0 0 1-.331-1.691v-.024a4.238 4.238 0 0 1 .338-1.69 4.312 4.312 0 0 1 2.353-2.324 4.646 4.646 0 0 1 1.8-.343 4.6 4.6 0 0 1 1.794.343 4.471 4.471 0 0 1 1.415.928 4.154 4.154 0 0 1 .927 1.372 4.321 4.321 0 0 1 .331 1.691v.023a4.256 4.256 0 0 1-.337 1.691 4.318 4.318 0 0 1-2.354 2.324 4.646 4.646 0 0 1-1.8.343zm.023-1.71a2.527 2.527 0 0 0 1.023-.2 2.345 2.345 0 0 0 .8-.565 2.662 2.662 0 0 0 .518-.837 2.77 2.77 0 0 0 .187-1.018v-.024a2.811 2.811 0 0 0-.187-1.022 2.525 2.525 0 0 0-1.342-1.415 2.485 2.485 0 0 0-1.023-.21 2.512 2.512 0 0 0-1.029.2 2.36 2.36 0 0 0-.795.565 2.673 2.673 0 0 0-.518.837 2.77 2.77 0 0 0-.187 1.018v.023a2.812 2.812 0 0 0 .187 1.023 2.533 2.533 0 0 0 .529.843 2.575 2.575 0 0 0 .807.572 2.459 2.459 0 0 0 1.031.213zm6.116-6.861h2l2.215 3.563 2.215-3.563h2v8.427h-1.83v-5.5l-2.372 3.6h-.048l-2.348-3.563v5.466h-1.83zm10.245 1.975h1.938v1.926h-1.938zm0 4.526h1.938v1.926h-1.938zm-87.136 16.516a4.261 4.261 0 0 1-1.944-.406 4.154 4.154 0 0 1-1.343-1.061l1.276-1.218a3.351 3.351 0 0 0 .909.752 2.315 2.315 0 0 0 1.125.259 1.3 1.3 0 0 0 .861-.275.917.917 0 0 0 .331-.743v-.023a.883.883 0 0 0-.434-.791 2.264 2.264 0 0 0-1.216-.275h-.771l-.289-1.175 2.011-2.014h-3.311v-1.6h5.705v1.4l-2.142 2.034a4.382 4.382 0 0 1 .839.229 2.476 2.476 0 0 1 .728.434 2.053 2.053 0 0 1 .515.692 2.37 2.37 0 0 1 .194 1v.024a2.787 2.787 0 0 1-.213 1.1 2.581 2.581 0 0 1-.605.873 2.714 2.714 0 0 1-.962.577 3.7 3.7 0 0 1-1.264.207zm4.322-1.611l2.8-2.3q.4-.324.675-.582a3.787 3.787 0 0 0 .451-.493 1.762 1.762 0 0 0 .253-.457 1.46 1.46 0 0 0 .078-.486 1.033 1.033 0 0 0-.313-.817 1.193 1.193 0 0 0-.818-.276 1.443 1.443 0 0 0-.873.277 4.88 4.88 0 0 0-.849.854l-1.3-1.048a7.32 7.32 0 0 1 .632-.751 3.569 3.569 0 0 1 .687-.552 2.955 2.955 0 0 1 .813-.339 4.029 4.029 0 0 1 1.011-.115 3.575 3.575 0 0 1 1.187.187 2.681 2.681 0 0 1 .914.523 2.336 2.336 0 0 1 .591.818 2.661 2.661 0 0 1 .21 1.071v.024a2.971 2.971 0 0 1-.139.945 2.8 2.8 0 0 1-.409.782 4.678 4.678 0 0 1-.691.734q-.422.368-.976.8l-1.372 1.059h3.679v1.6h-6.236zm7.656-.46h1.938v1.926h-1.938zm6.441 2.071a4.261 4.261 0 0 1-1.944-.406 4.154 4.154 0 0 1-1.343-1.061l1.276-1.218a3.351 3.351 0 0 0 .909.752 2.315 2.315 0 0 0 1.125.259 1.3 1.3 0 0 0 .861-.275.917.917 0 0 0 .331-.743v-.023a.883.883 0 0 0-.434-.791 2.264 2.264 0 0 0-1.216-.275h-.771l-.289-1.175 2.011-2.014h-3.311v-1.6h5.705v1.4l-2.142 2.034a4.382 4.382 0 0 1 .839.229 2.476 2.476 0 0 1 .728.434 2.053 2.053 0 0 1 .515.692 2.37 2.37 0 0 1 .194 1v.024a2.787 2.787 0 0 1-.213 1.1 2.581 2.581 0 0 1-.605.873 2.714 2.714 0 0 1-.962.577 3.7 3.7 0 0 1-1.264.207zm7.404 0a4.377 4.377 0 0 1-1.782-.335 4.754 4.754 0 0 1-1.372-.92l1.119-1.333a4.407 4.407 0 0 0 .964.674 2.31 2.31 0 0 0 1.047.24 1.608 1.608 0 0 0 1.029-.3 1.049 1.049 0 0 0 .379-.871v-.024a.988.988 0 0 0-.415-.848 1.787 1.787 0 0 0-1.077-.3 3.036 3.036 0 0 0-.753.09 4.26 4.26 0 0 0-.655.223l-1.072-.71.241-4.153h5.187v1.625H654l-.1 1.468c.168-.04.337-.074.5-.1a3.7 3.7 0 0 1 .6-.042 4.1 4.1 0 0 1 1.151.156 2.711 2.711 0 0 1 .943.48 2.211 2.211 0 0 1 .636.835 2.938 2.938 0 0 1 .23 1.219v.024a3.01 3.01 0 0 1-.23 1.207 2.592 2.592 0 0 1-.648.913 2.874 2.874 0 0 1-1.016.583 4.069 4.069 0 0 1-1.306.199zm4.658-2.071h1.938v1.926h-1.938zm6.489 2.046a4.591 4.591 0 0 1-1.294-.174 3.283 3.283 0 0 1-1.029-.494 2.38 2.38 0 0 1-.681-.765 2.03 2.03 0 0 1-.246-1v-.023a2.082 2.082 0 0 1 .343-1.246 2.527 2.527 0 0 1 1.018-.789 2.493 2.493 0 0 1-.783-.729 1.95 1.95 0 0 1-.288-1.113v-.023a1.99 1.99 0 0 1 .21-.9 2.194 2.194 0 0 1 .6-.734 2.975 2.975 0 0 1 .933-.493 4.162 4.162 0 0 1 2.426 0 3.036 3.036 0 0 1 .938.487 2.112 2.112 0 0 1 .6.734 2.028 2.028 0 0 1 .211.909v.023a1.95 1.95 0 0 1-.289 1.113 2.493 2.493 0 0 1-.783.729 3.115 3.115 0 0 1 1 .789 1.863 1.863 0 0 1 .36 1.2v.024a2.172 2.172 0 0 1-.246 1.047 2.321 2.321 0 0 1-.681.776 3.172 3.172 0 0 1-1.029.488 4.741 4.741 0 0 1-1.29.164zm0-1.528a1.7 1.7 0 0 0 1.071-.3.916.916 0 0 0 .386-.747v-.023a.866.866 0 0 0-.409-.765 2.156 2.156 0 0 0-2.095 0 .865.865 0 0 0-.41.765v.023a.919.919 0 0 0 .386.74 1.675 1.675 0 0 0 1.071.307zm0-3.575a1.277 1.277 0 0 0 .879-.289.94.94 0 0 0 .325-.734v-.024a.929.929 0 0 0-.313-.687 1.235 1.235 0 0 0-.891-.3 1.25 1.25 0 0 0-.891.295.911.911 0 0 0-.313.681v.023a.959.959 0 0 0 .325.741 1.26 1.26 0 0 0 .879.294zm7.873 5.128a3.836 3.836 0 0 1-1.408-.229 2.972 2.972 0 0 1-1.023-.675 3.228 3.228 0 0 1-.729-1.2 5.957 5.957 0 0 1-.271-1.992v-.024a7.09 7.09 0 0 1 .223-1.817 4.208 4.208 0 0 1 .68-1.457 3.258 3.258 0 0 1 1.156-.969 3.556 3.556 0 0 1 1.637-.355 4.869 4.869 0 0 1 .795.06 3.476 3.476 0 0 1 .674.18 3.761 3.761 0 0 1 .6.293 5.709 5.709 0 0 1 .566.388l-.976 1.428c-.137-.1-.269-.2-.4-.283a2.423 2.423 0 0 0-.4-.211 2.543 2.543 0 0 0-.434-.132 2.39 2.39 0 0 0-.494-.048 1.485 1.485 0 0 0-.691.151 1.56 1.56 0 0 0-.506.411 1.959 1.959 0 0 0-.331.624 3.924 3.924 0 0 0-.169.775 4.39 4.39 0 0 1 .721-.371 2.689 2.689 0 0 1 1.029-.169 3.8 3.8 0 0 1 1.168.175 2.727 2.727 0 0 1 .938.512 2.38 2.38 0 0 1 .626.837 2.765 2.765 0 0 1 .229 1.161v.024a2.771 2.771 0 0 1-.921 2.106 3.005 3.005 0 0 1-1.017.6 3.768 3.768 0 0 1-1.272.207zm-.066-1.6a1.534 1.534 0 0 0 1.07-.347 1.147 1.147 0 0 0 .381-.887v-.024a1.113 1.113 0 0 0-.394-.88 1.594 1.594 0 0 0-1.082-.342 1.565 1.565 0 0 0-1.069.336 1.109 1.109 0 0 0-.381.874v.024a1.147 1.147 0 0 0 .393.892 1.556 1.556 0 0 0 1.082.352zm4.7-.471h1.938v1.926h-1.938zm7.477-4.9h-3.961v-1.6H688v1.4l-3.78 7.03h-2.095zm6.463 6.946a4.591 4.591 0 0 1-1.294-.174 3.283 3.283 0 0 1-1.029-.494 2.38 2.38 0 0 1-.681-.765 2.03 2.03 0 0 1-.246-1v-.023a2.082 2.082 0 0 1 .343-1.246 2.527 2.527 0 0 1 1.018-.789 2.493 2.493 0 0 1-.783-.729 1.95 1.95 0 0 1-.288-1.113v-.023a1.99 1.99 0 0 1 .21-.9 2.194 2.194 0 0 1 .6-.734 2.975 2.975 0 0 1 .933-.493 4.162 4.162 0 0 1 2.426 0 3.036 3.036 0 0 1 .938.487 2.112 2.112 0 0 1 .6.734 2.028 2.028 0 0 1 .211.909v.023a1.95 1.95 0 0 1-.289 1.113 2.493 2.493 0 0 1-.783.729 3.115 3.115 0 0 1 1 .789 1.863 1.863 0 0 1 .36 1.2v.024a2.172 2.172 0 0 1-.246 1.047 2.321 2.321 0 0 1-.681.776 3.172 3.172 0 0 1-1.029.488 4.741 4.741 0 0 1-1.29.164zm0-1.528a1.7 1.7 0 0 0 1.071-.3.916.916 0 0 0 .386-.747v-.023a.866.866 0 0 0-.409-.765 2.156 2.156 0 0 0-2.095 0 .865.865 0 0 0-.41.765v.023a.919.919 0 0 0 .386.74 1.675 1.675 0 0 0 1.071.307zm0-3.575a1.277 1.277 0 0 0 .879-.289.94.94 0 0 0 .325-.734v-.024a.929.929 0 0 0-.313-.687 1.235 1.235 0 0 0-.891-.3 1.25 1.25 0 0 0-.891.295.911.911 0 0 0-.313.681v.023a.959.959 0 0 0 .325.741 1.26 1.26 0 0 0 .879.294zm-64.175-32.454l-1.469.361-.385-1.517 2.42-.723h1.264v8.487h-1.83zm3.527 5.143l2.8-2.3q.4-.324.675-.582a3.787 3.787 0 0 0 .451-.493 1.762 1.762 0 0 0 .253-.457 1.46 1.46 0 0 0 .078-.486 1.033 1.033 0 0 0-.313-.817 1.193 1.193 0 0 0-.818-.276 1.443 1.443 0 0 0-.873.277 4.88 4.88 0 0 0-.849.854l-1.3-1.048a7.32 7.32 0 0 1 .632-.751 3.569 3.569 0 0 1 .687-.552 2.955 2.955 0 0 1 .813-.339 4.029 4.029 0 0 1 1.011-.115 3.575 3.575 0 0 1 1.187.187 2.681 2.681 0 0 1 .914.523 2.336 2.336 0 0 1 .591.818 2.661 2.661 0 0 1 .21 1.071v.024a2.971 2.971 0 0 1-.139.945 2.8 2.8 0 0 1-.409.782 4.678 4.678 0 0 1-.691.734q-.422.368-.976.8l-1.372 1.059h3.672v1.6h-6.236zm7.656-.46h1.938v1.926h-1.938zm6.438 2.07a4.261 4.261 0 0 1-1.944-.406 4.154 4.154 0 0 1-1.343-1.061l1.276-1.218a3.351 3.351 0 0 0 .909.752 2.315 2.315 0 0 0 1.125.259 1.3 1.3 0 0 0 .861-.275.917.917 0 0 0 .331-.743v-.023a.883.883 0 0 0-.434-.791 2.264 2.264 0 0 0-1.216-.275h-.765l-.289-1.175 2.011-2.014h-3.311v-1.6h5.705v1.4l-2.142 2.034a4.382 4.382 0 0 1 .839.229 2.476 2.476 0 0 1 .728.434 2.053 2.053 0 0 1 .515.692 2.37 2.37 0 0 1 .194 1v.024a2.787 2.787 0 0 1-.213 1.1 2.581 2.581 0 0 1-.605.873 2.714 2.714 0 0 1-.962.577 3.7 3.7 0 0 1-1.27.207zm8.526-1.961h-4.117l-.3-1.312 4.623-5.357h1.568v5.165h1.132v1.5H656.1v1.817h-1.77zm0-1.5v-2.625l-2.239 2.625zm4.249 1.391h1.938v1.926h-1.938zm6.369 2.07a4.377 4.377 0 0 1-1.782-.335 4.754 4.754 0 0 1-1.372-.92l1.119-1.333a4.407 4.407 0 0 0 .964.674 2.31 2.31 0 0 0 1.047.24 1.608 1.608 0 0 0 1.029-.3 1.049 1.049 0 0 0 .379-.871v-.024a.988.988 0 0 0-.415-.848 1.787 1.787 0 0 0-1.077-.3 3.036 3.036 0 0 0-.753.09 4.26 4.26 0 0 0-.655.223l-1.072-.71.241-4.153h5.187v1.625h-3.6l-.1 1.468c.168-.04.337-.074.5-.1a3.7 3.7 0 0 1 .6-.042 4.1 4.1 0 0 1 1.151.156 2.711 2.711 0 0 1 .943.48 2.211 2.211 0 0 1 .636.835 2.938 2.938 0 0 1 .23 1.219v.024a3.01 3.01 0 0 1-.23 1.207 2.592 2.592 0 0 1-.648.913 2.874 2.874 0 0 1-1.016.583 4.069 4.069 0 0 1-1.306.199zm7.993 0a3.836 3.836 0 0 1-1.408-.229 2.972 2.972 0 0 1-1.023-.675 3.228 3.228 0 0 1-.729-1.2 5.957 5.957 0 0 1-.271-1.992v-.024a7.09 7.09 0 0 1 .223-1.817 4.208 4.208 0 0 1 .68-1.457 3.258 3.258 0 0 1 1.156-.969 3.556 3.556 0 0 1 1.637-.355 4.869 4.869 0 0 1 .795.06 3.476 3.476 0 0 1 .674.18 3.761 3.761 0 0 1 .6.293 5.709 5.709 0 0 1 .566.388l-.976 1.428c-.137-.1-.269-.2-.4-.283a2.423 2.423 0 0 0-.4-.211 2.543 2.543 0 0 0-.434-.132 2.39 2.39 0 0 0-.494-.048 1.485 1.485 0 0 0-.691.151 1.56 1.56 0 0 0-.506.411 1.959 1.959 0 0 0-.331.624 3.924 3.924 0 0 0-.169.775 4.39 4.39 0 0 1 .717-.373 2.689 2.689 0 0 1 1.029-.169 3.8 3.8 0 0 1 1.168.175 2.727 2.727 0 0 1 .938.512 2.38 2.38 0 0 1 .626.837 2.765 2.765 0 0 1 .229 1.161v.024a2.771 2.771 0 0 1-.921 2.106 3.005 3.005 0 0 1-1.017.6 3.768 3.768 0 0 1-1.268.209zm-.066-1.6a1.534 1.534 0 0 0 1.07-.347 1.147 1.147 0 0 0 .381-.887v-.024a1.113 1.113 0 0 0-.394-.88 1.594 1.594 0 0 0-1.082-.342 1.565 1.565 0 0 0-1.069.336 1.109 1.109 0 0 0-.381.874v.024a1.147 1.147 0 0 0 .393.892 1.556 1.556 0 0 0 1.082.353zm4.7-.47h1.938v1.926h-1.938zm7.477-4.9h-3.961v-1.6h6.067v1.4l-3.78 7.03h-2.095zm6.464 6.946a4.591 4.591 0 0 1-1.294-.174 3.283 3.283 0 0 1-1.029-.494 2.38 2.38 0 0 1-.681-.765 2.03 2.03 0 0 1-.246-1v-.023a2.082 2.082 0 0 1 .343-1.246 2.527 2.527 0 0 1 1.018-.789 2.493 2.493 0 0 1-.783-.729 1.95 1.95 0 0 1-.288-1.113v-.023a1.99 1.99 0 0 1 .21-.9 2.194 2.194 0 0 1 .6-.734 2.975 2.975 0 0 1 .933-.493 4.162 4.162 0 0 1 2.426 0 3.036 3.036 0 0 1 .938.487 2.112 2.112 0 0 1 .6.734 2.028 2.028 0 0 1 .211.909v.023a1.95 1.95 0 0 1-.289 1.113 2.493 2.493 0 0 1-.783.729 3.115 3.115 0 0 1 1 .789 1.863 1.863 0 0 1 .36 1.2v.024a2.172 2.172 0 0 1-.246 1.047 2.321 2.321 0 0 1-.681.776 3.172 3.172 0 0 1-1.029.488 4.741 4.741 0 0 1-1.29.164zm0-1.528a1.7 1.7 0 0 0 1.071-.3.916.916 0 0 0 .386-.747v-.025a.866.866 0 0 0-.409-.765 2.156 2.156 0 0 0-2.095 0 .865.865 0 0 0-.41.765v.023a.919.919 0 0 0 .386.74 1.675 1.675 0 0 0 1.071.309zm0-3.575a1.277 1.277 0 0 0 .879-.289.94.94 0 0 0 .325-.734v-.024a.929.929 0 0 0-.313-.687 1.235 1.235 0 0 0-.891-.3 1.25 1.25 0 0 0-.891.295.911.911 0 0 0-.313.681v.023a.959.959 0 0 0 .325.741 1.26 1.26 0 0 0 .879.297zM615.2 476.436h6.345v1.649h-4.515v1.709H621v1.649h-3.973v1.77h4.573v1.649h-6.4zm10.364 4.141l-2.817-4.142h2.167l1.77 2.732 1.782-2.732h2.106l-2.816 4.117 2.937 4.31h-2.167l-1.89-2.89-1.9 2.89h-2.106zm9.402-4.202h1.709l3.612 8.487h-1.938l-.771-1.89h-3.563l-.771 1.89h-1.89zm1.95 4.96L635.8 478.6l-1.12 2.732zm4.67-4.899h2L645.8 480l2.215-3.563h2v8.427h-1.83v-5.5l-2.372 3.6h-.048l-2.348-3.563v5.466h-1.83zm10.449 0h3.443a4.045 4.045 0 0 1 1.354.211 2.867 2.867 0 0 1 1.011.6 2.6 2.6 0 0 1 .639.921 3.06 3.06 0 0 1 .223 1.186v.024a2.966 2.966 0 0 1-.265 1.288 2.637 2.637 0 0 1-.729.927 3.157 3.157 0 0 1-1.084.56 4.571 4.571 0 0 1-1.33.187h-1.407v2.528h-1.854zm3.323 4.249a1.506 1.506 0 0 0 1.083-.367 1.2 1.2 0 0 0 .386-.908v-.024a1.151 1.151 0 0 0-.4-.951 1.709 1.709 0 0 0-1.1-.325h-1.437v2.576zm4.719-4.249h1.854v6.754h4.2v1.673h-6.056zm7.536 0h1.854v8.427h-1.854zm3.696 6.501h1.938v1.926h-1.938zm7.657 2.07a4.363 4.363 0 0 1-1.722-.337 4.239 4.239 0 0 1-1.372-.921 4.188 4.188 0 0 1-.9-1.379 4.436 4.436 0 0 1-.325-1.7v-.024a4.388 4.388 0 0 1 .325-1.69 4.339 4.339 0 0 1 .9-1.385 4.194 4.194 0 0 1 1.384-.939 4.513 4.513 0 0 1 1.782-.343 5.555 5.555 0 0 1 1.077.1 4.5 4.5 0 0 1 .885.265 3.855 3.855 0 0 1 .734.409 4.941 4.941 0 0 1 .626.529l-1.18 1.36a4.481 4.481 0 0 0-1-.7 2.571 2.571 0 0 0-1.15-.252 2.33 2.33 0 0 0-1.757.77 2.643 2.643 0 0 0-.506.837 2.85 2.85 0 0 0-.181 1.018v.023a2.894 2.894 0 0 0 .181 1.023 2.664 2.664 0 0 0 .5.843 2.308 2.308 0 0 0 1.763.782 2.58 2.58 0 0 0 1.223-.265 4.725 4.725 0 0 0 .993-.722l1.18 1.191a6.1 6.1 0 0 1-.675.626 4.029 4.029 0 0 1-.764.476 3.96 3.96 0 0 1-.909.3 5.465 5.465 0 0 1-1.112.105zm9.028 0a4.6 4.6 0 0 1-1.794-.343 4.456 4.456 0 0 1-1.414-.928 4.142 4.142 0 0 1-.928-1.372 4.325 4.325 0 0 1-.331-1.691v-.024a4.238 4.238 0 0 1 .338-1.69 4.312 4.312 0 0 1 2.353-2.324 4.646 4.646 0 0 1 1.8-.343 4.6 4.6 0 0 1 1.794.343 4.471 4.471 0 0 1 1.415.928 4.154 4.154 0 0 1 .927 1.372 4.321 4.321 0 0 1 .331 1.691v.023a4.256 4.256 0 0 1-.337 1.691 4.318 4.318 0 0 1-2.354 2.324 4.646 4.646 0 0 1-1.8.343zm.023-1.71a2.527 2.527 0 0 0 1.023-.2 2.345 2.345 0 0 0 .8-.565 2.662 2.662 0 0 0 .518-.837 2.77 2.77 0 0 0 .187-1.018v-.024a2.811 2.811 0 0 0-.187-1.022 2.525 2.525 0 0 0-1.342-1.415 2.485 2.485 0 0 0-1.023-.21 2.512 2.512 0 0 0-1.029.2 2.36 2.36 0 0 0-.795.565 2.673 2.673 0 0 0-.518.837 2.77 2.77 0 0 0-.187 1.018v.023a2.812 2.812 0 0 0 .187 1.023 2.533 2.533 0 0 0 .529.843 2.575 2.575 0 0 0 .807.572 2.459 2.459 0 0 0 1.031.213zm6.116-6.861h2l2.214 3.564 2.215-3.563h2v8.427h-1.83v-5.5l-2.372 3.6h-.048l-2.348-3.563v5.466h-1.83zm10.245 1.974h1.938v1.926h-1.938zm0 4.526h1.938v1.926h-1.938zm-76.563 9.764l-1.469.361-.385-1.517 2.42-.723h1.264v8.487h-1.83zm3.528 5.142l2.8-2.3q.4-.324.675-.582a3.787 3.787 0 0 0 .451-.493 1.762 1.762 0 0 0 .253-.457 1.46 1.46 0 0 0 .078-.486 1.033 1.033 0 0 0-.313-.817 1.193 1.193 0 0 0-.818-.276 1.443 1.443 0 0 0-.873.277 4.88 4.88 0 0 0-.849.854l-1.3-1.048a7.32 7.32 0 0 1 .632-.751 3.569 3.569 0 0 1 .687-.552 2.955 2.955 0 0 1 .813-.339 4.029 4.029 0 0 1 1.011-.115 3.575 3.575 0 0 1 1.187.187 2.681 2.681 0 0 1 .914.523 2.336 2.336 0 0 1 .591.818 2.661 2.661 0 0 1 .21 1.071v.024a2.971 2.971 0 0 1-.139.945 2.8 2.8 0 0 1-.409.782 4.678 4.678 0 0 1-.691.734q-.422.368-.976.8l-1.372 1.059h3.672v1.6h-6.236zm7.657-.46h1.938v1.926H639zm6.44 2.07a4.261 4.261 0 0 1-1.944-.406 4.154 4.154 0 0 1-1.343-1.061l1.276-1.218a3.351 3.351 0 0 0 .909.752 2.315 2.315 0 0 0 1.125.259 1.3 1.3 0 0 0 .861-.275.917.917 0 0 0 .331-.743v-.023a.883.883 0 0 0-.434-.791 2.264 2.264 0 0 0-1.216-.275h-.771l-.289-1.175 2.011-2.014h-3.311v-1.6h5.705v1.4l-2.142 2.034a4.382 4.382 0 0 1 .839.229 2.476 2.476 0 0 1 .728.434 2.053 2.053 0 0 1 .515.692 2.37 2.37 0 0 1 .194 1v.024a2.787 2.787 0 0 1-.213 1.1 2.581 2.581 0 0 1-.605.873 2.714 2.714 0 0 1-.962.577 3.7 3.7 0 0 1-1.264.207zm8.523-1.962h-4.117l-.3-1.312 4.623-5.357h1.564v5.165h1.132v1.5h-1.132v1.817h-1.77zm0-1.5v-2.63l-2.239 2.625zm4.249 1.392h1.938v1.926h-1.938zm7.488.108h-4.117l-.3-1.312 4.623-5.357h1.564v5.165h1.13v1.5h-1.13v1.817h-1.77zm0-1.5v-2.63l-2.239 2.625zm7.584 3.462a3.836 3.836 0 0 1-1.408-.229 2.972 2.972 0 0 1-1.023-.675 3.228 3.228 0 0 1-.729-1.2 5.957 5.957 0 0 1-.271-1.992v-.024a7.09 7.09 0 0 1 .223-1.817 4.208 4.208 0 0 1 .68-1.457 3.258 3.258 0 0 1 1.156-.969 3.556 3.556 0 0 1 1.637-.355 4.869 4.869 0 0 1 .795.06 3.476 3.476 0 0 1 .674.18 3.761 3.761 0 0 1 .6.293 5.711 5.711 0 0 1 .566.388l-.976 1.428c-.137-.1-.269-.2-.4-.283a2.422 2.422 0 0 0-.4-.211 2.543 2.543 0 0 0-.434-.132 2.39 2.39 0 0 0-.494-.048 1.485 1.485 0 0 0-.691.151 1.56 1.56 0 0 0-.506.411 1.959 1.959 0 0 0-.331.624 3.924 3.924 0 0 0-.169.775 4.39 4.39 0 0 1 .717-.373 2.689 2.689 0 0 1 1.029-.169 3.8 3.8 0 0 1 1.168.175 2.727 2.727 0 0 1 .938.512 2.38 2.38 0 0 1 .626.837 2.765 2.765 0 0 1 .229 1.161v.024a2.771 2.771 0 0 1-.921 2.106 3.005 3.005 0 0 1-1.017.6 3.768 3.768 0 0 1-1.268.209zm-.066-1.6a1.534 1.534 0 0 0 1.07-.347 1.147 1.147 0 0 0 .381-.887v-.024a1.113 1.113 0 0 0-.394-.88 1.594 1.594 0 0 0-1.082-.342 1.565 1.565 0 0 0-1.069.336 1.109 1.109 0 0 0-.381.874v.024a1.147 1.147 0 0 0 .393.892 1.556 1.556 0 0 0 1.082.353zm4.7-.47h1.938v1.926h-1.938zm7.477-4.901h-3.961v-1.6h6.066v1.4l-3.78 7.03h-2.095zm6.463 6.947a4.591 4.591 0 0 1-1.294-.174 3.283 3.283 0 0 1-1.029-.494 2.38 2.38 0 0 1-.681-.765 2.03 2.03 0 0 1-.246-1v-.023a2.082 2.082 0 0 1 .343-1.246 2.527 2.527 0 0 1 1.018-.789 2.493 2.493 0 0 1-.783-.729 1.95 1.95 0 0 1-.288-1.113v-.023a1.99 1.99 0 0 1 .21-.9 2.194 2.194 0 0 1 .6-.734 2.975 2.975 0 0 1 .933-.493 4.162 4.162 0 0 1 2.426 0 3.036 3.036 0 0 1 .938.487 2.112 2.112 0 0 1 .6.734 2.028 2.028 0 0 1 .211.909v.023a1.95 1.95 0 0 1-.289 1.113 2.493 2.493 0 0 1-.783.729 3.115 3.115 0 0 1 1 .789 1.863 1.863 0 0 1 .36 1.2v.024a2.172 2.172 0 0 1-.246 1.047 2.321 2.321 0 0 1-.681.776 3.172 3.172 0 0 1-1.029.488 4.741 4.741 0 0 1-1.29.164zm0-1.528a1.7 1.7 0 0 0 1.071-.3.916.916 0 0 0 .386-.747v-.023a.866.866 0 0 0-.409-.765 2.156 2.156 0 0 0-2.095 0 .865.865 0 0 0-.41.765v.023a.919.919 0 0 0 .386.74 1.675 1.675 0 0 0 1.071.307zm0-3.575a1.277 1.277 0 0 0 .879-.289.94.94 0 0 0 .325-.734v-.024a.929.929 0 0 0-.313-.687 1.235 1.235 0 0 0-.891-.3 1.25 1.25 0 0 0-.891.295.911.911 0 0 0-.313.681v.023a.959.959 0 0 0 .325.741 1.26 1.26 0 0 0 .879.293z" fill="#c2d6ed"/></g><path d="M651.422 447.916a10.315 10.315 0 1 0 10.314-10.316 10.326 10.326 0 0 0-10.314 10.316zm16.764 0a6.449 6.449 0 1 1-6.449-6.449 6.456 6.456 0 0 1 6.449 6.449zm37.933.7a1.933 1.933 0 0 1-1.933 1.933H693.5a31.879 31.879 0 0 1-3.765 12.639 1.934 1.934 0 1 1-3.395-1.856 27.987 27.987 0 0 0 3.277-10.783h-8.835a1.933 1.933 0 1 1 0-3.866h8.91A28.011 28.011 0 0 0 663.67 420v8.39a1.933 1.933 0 0 1-3.866 0V420a28.01 28.01 0 0 0-26.018 26.682h8.836a1.933 1.933 0 0 1 0 3.866h-8.765a28.031 28.031 0 0 0 25.943 25.285v-8.658a1.933 1.933 0 1 1 3.866 0v8.686A27.886 27.886 0 0 0 677 471.413a1.933 1.933 0 0 1 2.108 3.24 31.725 31.725 0 0 1-15.439 5.074v10.853a1.933 1.933 0 0 1-3.866 0V479.7a31.887 31.887 0 0 1-29.814-29.152h-10.773a1.933 1.933 0 1 1 0-3.866h10.7a31.873 31.873 0 0 1 29.884-30.55v-11.149a1.933 1.933 0 0 1 3.866 0v11.149a31.873 31.873 0 0 1 29.886 30.548h10.63a1.933 1.933 0 0 1 1.937 1.933z" fill="#f26a75" opacity=".16"/><path d="M976.919 552.11c-7.577.3-14.247 3.164-18.271 3.239-4.1.077-8.352-2.587-18.271-3.239a97.34 97.34 0 0 0-22.331 1.194l.4 3.922a3.617 3.617 0 0 1 2.639 2.385c.817 2.768.541 7.683 3.451 10.57a14.385 14.385 0 0 0 10.354 4.262c3.43.162 11.156-.216 15.429-4.262a18.739 18.739 0 0 0 3.858-5.626c1.06-2.284 1.739-4.751 2.842-5.455a3.088 3.088 0 0 1 1.623-.171 3.228 3.228 0 0 1 2.234.512c1.381 1.232 1.981 3.99 3.248 6.479a17.009 17.009 0 0 0 3.654 4.6c3.8 3.466 12.356 4.076 15.43 3.922 3.382-.171 7.184-1.165 9.542-3.75a11.727 11.727 0 0 0 2.436-4.432c.721-2.329.924-4.755 1.422-6.478a2.944 2.944 0 0 1 2.435-2.387l.609-4.091a124.931 124.931 0 0 0-22.733-1.194z" fill="#7e77b6" opacity=".25"/><path d="M976.919 550.11c-7.577.3-14.247 3.164-18.271 3.239-4.1.077-8.352-2.587-18.271-3.239a97.34 97.34 0 0 0-22.331 1.194l.4 3.922a3.617 3.617 0 0 1 2.639 2.385c.817 2.768.541 7.683 3.451 10.57a14.385 14.385 0 0 0 10.354 4.262c3.43.162 11.156-.216 15.429-4.262a18.739 18.739 0 0 0 3.858-5.626c1.06-2.284 1.739-4.751 2.842-5.455a3.088 3.088 0 0 1 1.623-.171 3.228 3.228 0 0 1 2.234.512c1.381 1.232 1.981 3.99 3.248 6.479a17.009 17.009 0 0 0 3.654 4.6c3.8 3.466 12.356 4.076 15.43 3.922 3.382-.171 7.184-1.165 9.542-3.75a11.727 11.727 0 0 0 2.436-4.432c.721-2.329.924-4.755 1.422-6.478a2.944 2.944 0 0 1 2.435-2.387l.609-4.091a124.931 124.931 0 0 0-22.733-1.194z" fill="#262261"/></svg>