<svg width="273" height="151" xmlns="http://www.w3.org/2000/svg"><g fill="#000" fill-rule="nonzero"><path d="M249.404 136.439V7.013c0-3.916-3.026-7.013-7.018-7.013H30.61c-3.992 0-7.013 3.097-7.013 7.013V136.44H0v6.721c3.008 4.872 19.27 7.4 25.723 7.4h219.793c6.458 0 24.476-2.528 27.484-7.4v-6.721h-23.596zM32.948 9.353h207.104v127.086H32.948V9.353z"/><path d="M109 81.63h3.804V71.618c0-1.974 1.283-3.409 3.116-3.409 1.772 0 2.871 1.126 2.871 2.946V81.63h3.697V71.525c0-1.959 1.253-3.316 3.086-3.316 1.863 0 2.902 1.141 2.902 3.147v10.273h3.803V70.415c0-3.27-2.092-5.445-5.285-5.445-2.337 0-4.262 1.265-5.04 3.285h-.093c-.595-2.097-2.23-3.285-4.52-3.285-2.2 0-3.911 1.25-4.614 3.147h-.076v-2.839H109V81.63zm31.605-2.638c-1.65 0-2.75-.849-2.75-2.19 0-1.296 1.054-2.13 2.887-2.253l3.743-.231v1.25c0 1.974-1.726 3.424-3.88 3.424zm-1.146 2.9c2.078 0 4.11-1.095 5.041-2.87h.077v2.608h3.666V70.369c0-3.286-2.612-5.43-6.63-5.43-4.124 0-6.705 2.19-6.873 5.244h3.528c.244-1.357 1.39-2.236 3.193-2.236 1.878 0 3.024.987 3.024 2.7v1.172l-4.277.246c-3.941.247-6.156 1.99-6.156 4.89 0 2.947 2.276 4.937 5.407 4.937zm25.48-10.783c-.26-3.44-2.902-6.17-7.18-6.17-4.704 0-7.76 3.286-7.76 8.515 0 5.306 3.056 8.499 7.791 8.499 4.064 0 6.859-2.406 7.164-6.062h-3.59c-.35 1.85-1.603 2.961-3.528 2.961-2.414 0-3.971-1.974-3.971-5.399 0-3.363 1.542-5.399 3.94-5.399 2.032 0 3.239 1.311 3.544 3.054h3.59v.001zM176.686 59c-6.43 0-10.463 4.427-10.463 11.508 0 7.08 4.032 11.492 10.463 11.492 6.416 0 10.449-4.412 10.449-11.492 0-7.08-4.033-11.508-10.449-11.508zm0 3.394c3.926 0 6.43 3.147 6.43 8.114 0 4.951-2.504 8.098-6.43 8.098-3.94 0-6.43-3.147-6.43-8.098 0-4.967 2.49-8.114 6.43-8.114zm12.053 12.973c.168 4.103 3.498 6.633 8.57 6.633 5.33 0 8.691-2.653 8.691-6.88 0-3.316-1.894-5.183-6.37-6.216l-2.535-.587c-2.704-.648-3.82-1.511-3.82-2.992 0-1.851 1.681-3.085 4.17-3.085 2.521 0 4.247 1.25 4.43 3.332h3.758c-.091-3.919-3.3-6.572-8.156-6.572-4.797 0-8.203 2.669-8.203 6.618 0 3.178 1.924 5.152 5.987 6.093l2.857.679c2.78.663 3.91 1.589 3.91 3.193 0 1.851-1.848 3.178-4.506 3.178-2.688 0-4.72-1.342-4.964-3.394h-3.819zM91.027 77.43a19.136 19.136 0 0 1-1.893 3.402c-.995 1.42-1.81 2.401-2.437 2.946-.974.896-2.017 1.354-3.133 1.38-.802 0-1.769-.228-2.894-.69-1.13-.461-2.167-.69-3.116-.69-.995 0-2.062.229-3.204.69-1.143.462-2.064.703-2.768.727-1.071.046-2.138-.426-3.204-1.417-.68-.593-1.53-1.61-2.55-3.05-1.093-1.538-1.992-3.322-2.696-5.356C62.378 73.176 62 71.05 62 68.99c0-2.36.51-4.394 1.53-6.099a8.979 8.979 0 0 1 3.206-3.242 8.624 8.624 0 0 1 4.334-1.223c.851 0 1.966.263 3.353.78 1.382.519 2.27.782 2.658.782.291 0 1.277-.308 2.949-.921 1.58-.569 2.914-.804 4.007-.712 2.962.24 5.186 1.407 6.666 3.51-2.649 1.605-3.959 3.852-3.933 6.736.024 2.245.84 4.114 2.44 5.598a8.018 8.018 0 0 0 2.438 1.6c-.196.566-.402 1.11-.621 1.631zm-6.792-26.726c0 1.76-.643 3.404-1.925 4.925-1.547 1.809-3.418 2.854-5.447 2.689a5.48 5.48 0 0 1-.04-.667c0-1.69.735-3.498 2.041-4.977.652-.749 1.482-1.371 2.488-1.868 1.004-.49 1.953-.76 2.846-.806.026.235.037.47.037.704z"/></g></svg>