<svg width="273" height="151" xmlns="http://www.w3.org/2000/svg"><g fill="#000" fill-rule="evenodd"><path d="M249.404 136.439V7.013c0-3.916-3.026-7.013-7.018-7.013H30.61c-3.992 0-7.013 3.097-7.013 7.013V136.44H0v6.721c3.008 4.872 19.27 7.4 25.723 7.4h219.793c6.458 0 24.476-2.528 27.484-7.4v-6.721h-23.596zM32.948 9.353h207.104v127.086H32.948V9.353z" fill-rule="nonzero"/><text font-family="Avenir-Medium, Avenir" font-size="26" font-weight="400"><tspan x="110" y="82">Windows</tspan></text><path d="M74.575 74.05v14.867L59 86.77V74.05h15.575zm0-16.967v15.05H59V59.23l15.575-2.147zM97 74.05V92l-20.713-2.855V74.05H97zM97 54v18.132H76.287V56.855L97 54z" fill-rule="nonzero"/></g></svg>